<?xml version="1.0" encoding="UTF-8"?>
<svg version="1.1" xmlns="http://www.w3.org/2000/svg" width="256" height="207">
<path d="M0 0 C-0.47529599 3.7505012 -0.95590802 7.50030247 -1.4375 11.25 C-1.63956055 12.84521484 -1.63956055 12.84521484 -1.84570312 14.47265625 C-2.04389648 16.00986328 -2.04389648 16.00986328 -2.24609375 17.578125 C-2.36654053 18.52075195 -2.4869873 19.46337891 -2.61108398 20.43457031 C-2.95105369 22.67713258 -3.40394074 24.81369963 -4 27 C1.68152149 24.87096499 1.68152149 24.87096499 5.1875 20.3125 C5.5896875 19.1678125 5.5896875 19.1678125 6 18 C8.4375 17.0625 8.4375 17.0625 11 17 C11.99 17.66 12.98 18.32 14 19 C14.3125 22 14.3125 22 14 25 C13.34 25.66 12.68 26.32 12 27 C10.97777344 26.9484375 9.95554687 26.896875 8.90234375 26.84375 C3.81976996 27.04725646 0.82842392 28.90063556 -3.4375 31.5 C-4.16904297 31.92925781 -4.90058594 32.35851563 -5.65429688 32.80078125 C-7.44421563 33.85367463 -9.22326854 34.92500282 -11 36 C-11.33 35.01 -11.66 34.02 -12 33 C-13.65003581 33.8796529 -15.29968928 34.76002298 -16.94921875 35.640625 C-18.54817993 36.49382324 -18.54817993 36.49382324 -20.17944336 37.36425781 C-22.54235376 38.6344311 -24.8985958 39.91207897 -27.24829102 41.20605469 C-32.75923901 44.2331458 -38.24589821 47.16980104 -44.015625 49.6875 C-55.52751726 54.96429153 -60.7435409 60.18824288 -65.4375 72.125 C-66.60029716 75.39460983 -67.71866009 78.67718236 -68.83642578 81.96240234 C-71.86874731 89.87850483 -76.94394915 96.59242484 -82.25 103.125 C-82.77851563 103.7953125 -83.30703125 104.465625 -83.8515625 105.15625 C-85.1836618 106.81292172 -86.58611578 108.41255514 -88 110 C-88.66 110 -89.32 110 -90 110 C-92.33867707 104.77714798 -94.66350134 99.54852795 -96.97363281 94.31298828 C-97.86420196 92.30603013 -98.76897242 90.30645395 -99.6796875 88.30859375 C-100.13601562 87.27863281 -100.59234375 86.24867187 -101.0625 85.1875 C-101.46597656 84.29417969 -101.86945313 83.40085937 -102.28515625 82.48046875 C-103.59067398 77.95039355 -102.10026892 75.00960362 -99.92578125 71.0390625 C-99.06225002 69.56325722 -98.19090525 68.09200089 -97.3125 66.625 C-96.89033203 65.89539063 -96.46816406 65.16578125 -96.03320312 64.4140625 C-90.16359827 54.49859126 -84.0417653 49.36559581 -74 43.625 C-71.73471778 42.29981557 -69.47038631 40.97300451 -67.20703125 39.64453125 C-65.58595459 38.69827881 -65.58595459 38.69827881 -63.93212891 37.73291016 C-60.45411315 35.67737678 -57.06679767 33.52624351 -53.6875 31.3125 C-45.81449466 26.17918516 -37.73647751 21.39683199 -29.66259766 16.58789062 C-25.12338397 13.88084443 -20.59346096 11.15832829 -16.0625 8.4375 C-11.29010761 5.57378801 -11.29010761 5.57378801 -8.95751953 4.17919922 C-7.31444792 3.18942173 -5.68482741 2.17736217 -4.05859375 1.16015625 C-2 0 -2 0 0 0 Z M8 21 C8.33 21.99 8.66 22.98 9 24 C9.66 23.67 10.32 23.34 11 23 C11 22.34 11 21.68 11 21 C10.01 21 9.02 21 8 21 Z " fill="#7ECF97" transform="translate(242,0)"/>
<path d="M0 0 C4.68772056 0.93754411 6.91173579 1.91763112 10.875 4.359375 C11.43222244 4.69988388 11.98944489 5.04039276 12.56355286 5.39122009 C14.38015156 6.50374634 16.19002847 7.62673032 18 8.75 C19.26743012 9.52904004 20.53525658 10.30743561 21.8034668 11.08520508 C24.96338719 13.02571362 28.11787189 14.97483651 31.2699585 16.92803955 C33.74766868 18.46326707 36.22753161 19.99500851 38.70703125 21.52734375 C41.24400646 23.09667072 43.78009343 24.66736529 46.31396484 26.24169922 C53.81928175 30.90314191 61.36585037 35.49560866 68.92504883 40.0690918 C70.7228912 41.15920901 72.51601532 42.25714784 74.30419922 43.36303711 C76.13185381 44.47283824 77.98397874 45.54313137 79.85595703 46.57641602 C87.34542935 50.88629843 91.28361212 55.79342064 95.625 63.1875 C96.23472656 64.17169922 96.84445313 65.15589844 97.47265625 66.16992188 C102.70693586 74.74411487 102.70693586 74.74411487 103 78 C102.13549805 80.86914062 102.13549805 80.86914062 100.76171875 84.15625 C100.27123047 85.34347656 99.78074219 86.53070313 99.27539062 87.75390625 C98.74621752 89.00265662 98.21691941 90.25135403 97.6875 91.5 C97.16892044 92.74828236 96.65133133 93.99697667 96.13476562 95.24609375 C92.09382505 104.95067333 92.09382505 104.95067333 90 109 C85.63524193 107.44262154 83.34267492 104.04807559 80.625 100.5 C79.94050781 99.63761719 79.94050781 99.63761719 79.2421875 98.7578125 C71.74599739 89.11383758 67.10456077 78.91891282 62.96484375 67.48242188 C60.18517618 60.3533392 57.83625166 57.27372703 51 54 C48.90718603 52.8331507 46.81903786 51.65791273 44.734375 50.4765625 C42.40740875 49.19053812 40.07951026 47.9063913 37.75 46.625 C29.09870113 41.8585509 20.50773625 37.01812898 12 32 C12 32.99 12 33.98 12 35 C8.02952389 33.56015702 4.69089104 31.62567928 1.125 29.375 C-3.72873169 26.47591149 -6.45327458 25.39709506 -12 26 C-14 24 -14 24 -14.125 20.875 C-14.08375 19.92625 -14.0425 18.9775 -14 18 C-11.1875 16.875 -11.1875 16.875 -8 16 C-7.01 16.66 -6.02 17.32 -5 18 C-4.87625 18.928125 -4.87625 18.928125 -4.75 19.875 C-3.87887965 23.08076619 -3.87887965 23.08076619 3 26 C2.01 17.42 1.02 8.84 0 0 Z M-11 20 C-11 20.99 -11 21.98 -11 23 C-10.01 22.67 -9.02 22.34 -8 22 C-8.33 21.34 -8.66 20.68 -9 20 C-9.66 20 -10.32 20 -11 20 Z " fill="#3FADD0" transform="translate(14,1)"/>
<path d="M0 0 C-0.69135725 6.22221527 -2.12090329 12.03279551 -4 18 C-4.4635791 19.75981201 -4.4635791 19.75981201 -4.93652344 21.55517578 C-7.18409813 28.07551003 -9.28152385 32.4760518 -15.61474609 35.69824219 C-21.31680708 38.16128528 -27.20359149 40.02038437 -33.125 41.875 C-35.17229446 42.5639154 -37.21789433 43.25788837 -39.26171875 43.95703125 C-53.57290254 48.79515677 -53.57290254 48.79515677 -60 50 C-61 48 -61 48 -60.3984375 46.16015625 C-58.24452752 41.7454629 -56.68149446 39.08066421 -52 37 C-53.32 37 -54.64 37 -56 37 C-55.37472475 32.40422694 -54.31582163 29.05654644 -50.62109375 26.08984375 C-47.47115483 24.24853458 -44.28053447 22.59705286 -41 21 C-39.45119141 20.22462891 -39.45119141 20.22462891 -37.87109375 19.43359375 C-35.63251889 18.31565324 -33.39007727 17.20543361 -31.14453125 16.1015625 C-25.79774417 13.42749437 -20.5593853 10.55117997 -15.3125 7.6875 C-14.34328613 7.15938721 -13.37407227 6.63127441 -12.37548828 6.0871582 C-1.26202888 0 -1.26202888 0 0 0 Z M-23 22 C-23.66 23.32 -24.32 24.64 -25 26 C-22.69 26.33 -20.38 26.66 -18 27 C-18.99 26.34 -19.98 25.68 -21 25 C-21.66 24.01 -22.32 23.02 -23 22 Z M-17 22 C-16 25 -16 25 -16 25 Z M-28 26 C-28.66 26.66 -29.32 27.32 -30 28 C-28.35 27.67 -26.7 27.34 -25 27 C-25.99 26.67 -26.98 26.34 -28 26 Z M-38.6875 30.4375 C-40.17830078 31.14712891 -40.17830078 31.14712891 -41.69921875 31.87109375 C-42.45847656 32.24363281 -43.21773437 32.61617187 -44 33 C-40.08428299 34.305239 -38.96107003 33.32239848 -35.3125 31.5625 C-34.31863281 31.08941406 -33.32476562 30.61632812 -32.30078125 30.12890625 C-31.54152344 29.75636719 -30.78226563 29.38382813 -30 29 C-33.91571701 27.694761 -35.03892997 28.67760152 -38.6875 30.4375 Z M-47 34 C-47.66 34.66 -48.32 35.32 -49 36 C-47.35 35.67 -45.7 35.34 -44 35 C-44.99 34.67 -45.98 34.34 -47 34 Z " fill="#99DA9C" transform="translate(238,33)"/>
<path d="M0 0 C3.86625622 0.6026069 6.83621036 1.76515323 10.2890625 3.58984375 C11.30452148 4.12230713 12.31998047 4.65477051 13.36621094 5.20336914 C14.44161133 5.77563232 15.51701172 6.34789551 16.625 6.9375 C17.73133789 7.52072021 18.83767578 8.10394043 19.97753906 8.70483398 C22.23590617 9.89566556 24.49307143 11.08877919 26.74902344 12.28417969 C29.72317633 13.85389631 32.70610166 15.40451501 35.6953125 16.9453125 C36.55431152 17.39011963 37.41331055 17.83492676 38.29833984 18.29321289 C39.88799954 19.11622033 41.4793743 19.93592676 43.07275391 20.75170898 C50.6898048 24.72369046 54.37808097 27.72025569 57 36 C55 37 55 37 53.21240234 36.47094727 C52.15980225 36.02319946 52.15980225 36.02319946 51.0859375 35.56640625 C50.32539062 35.24736328 49.56484375 34.92832031 48.78125 34.59960938 C47.9871875 34.25736328 47.193125 33.91511719 46.375 33.5625 C45.57320312 33.22412109 44.77140625 32.88574219 43.9453125 32.53710938 C41.96060036 31.69833222 39.97991125 30.85004755 38 30 C41.28502052 31.3427101 44.54959908 32.72948926 47.8125 34.125 C48.74126953 34.50398438 49.67003906 34.88296875 50.62695312 35.2734375 C57.48085514 38.24263693 57.48085514 38.24263693 60.13671875 42.1171875 C61 45 61 45 61 48 C55.25191842 47.38707 50.15389252 45.88243717 44.70703125 43.98046875 C43.83858078 43.68062576 42.97013031 43.38078278 42.07536316 43.07185364 C40.24968033 42.43886363 38.42517616 41.80246492 36.60180664 41.1628418 C33.81510475 40.18841081 31.02221832 39.23344171 28.22851562 38.27929688 C26.45011102 37.66002982 24.67210185 37.03962572 22.89453125 36.41796875 C21.64601128 35.99429268 21.64601128 35.99429268 20.37226868 35.5620575 C14.77939374 33.57231566 11.50957363 31.5813709 8.4375 26.328125 C4.42495164 17.73603774 2.01628238 9.23931749 0 0 Z M23 21 C23 22.32 23 23.64 23 25 C23.99 24.67 24.98 24.34 26 24 C25.34 24 24.68 24 24 24 C23.67 23.01 23.34 22.02 23 21 Z M17 22 C18 24 18 24 18 24 Z M18 25 C18 25.33 18 25.66 18 26 C19.65 26 21.3 26 23 26 C23 25.67 23 25.34 23 25 C21.35 25 19.7 25 18 25 Z M26 25 C28.93828597 27.50298434 31.17902761 28.46930939 35 29 C32.06171403 26.49701566 29.82097239 25.53069061 26 25 Z " fill="#4695C2" transform="translate(17,34)"/>
<path d="M0 0 C4.81636085 1.59705892 9.6319895 3.19630235 14.44702148 4.79736328 C16.07671657 5.33894414 17.7065924 5.87998148 19.33666992 6.42041016 C24.10217964 8.00057608 28.86244551 9.59535374 33.61883545 11.20275879 C36.01100596 12.00368492 38.40944535 12.78329267 40.80908203 13.56152344 C42.33257346 14.0690114 43.8558572 14.57712342 45.37890625 15.0859375 C46.07410873 15.30553131 46.76931122 15.52512512 47.48558044 15.75137329 C54.13680859 18.01143907 57.94505806 22.44322771 62 28 C62 28.66 62 29.32 62 30 C56.66666667 30 51.33333333 30 46 30 C47.18078125 30.02578125 48.3615625 30.0515625 49.578125 30.078125 C51.13545323 30.13441397 52.69274347 30.19176114 54.25 30.25 C55.41595703 30.27126953 55.41595703 30.27126953 56.60546875 30.29296875 C60.4773812 30.45843509 62.41474512 30.54400386 65.546875 32.984375 C67 35 67 35 67 36 C61.84498614 36.27551464 56.69440047 36.47310824 51.53369141 36.60424805 C49.78553522 36.65898829 48.03786856 36.73362055 46.29150391 36.82983398 C35.16423207 37.42673583 27.85937259 36.72251823 19.30685425 29.16374207 C17.84889077 27.79932017 16.4230096 26.40083842 15 25 C13.71397615 23.90997406 12.42423451 22.82424559 11.125 21.75 C6.28258253 16.69704264 0 7.02459843 0 0 Z M27 18 C27.33 18.99 27.66 19.98 28 21 C28.69867188 20.98839844 29.39734375 20.97679687 30.1171875 20.96484375 C31.02726562 20.95582031 31.93734375 20.94679688 32.875 20.9375 C33.77992187 20.92589844 34.68484375 20.91429687 35.6171875 20.90234375 C38 21 38 21 40 22 C39.67 21.01 39.34 20.02 39 19 C35.04 18.67 31.08 18.34 27 18 Z M41 23 C41.33 23.99 41.66 24.98 42 26 C42 25.01 42 24.02 42 23 C41.67 23 41.34 23 41 23 Z " fill="#3A7CB1" transform="translate(26,69)"/>
<path d="M0 0 C-3.75441187 13.47171318 -11.38628837 22.30866982 -22 31 C-22.4996376 31.43609085 -22.99927521 31.8721817 -23.51405334 32.32148743 C-28.30033704 36.18801893 -31.95634416 36.68431865 -37.99609375 36.48828125 C-38.82963882 36.48120651 -39.6631839 36.47413177 -40.52198792 36.46684265 C-43.16143913 36.43904885 -45.79869969 36.37634389 -48.4375 36.3125 C-50.2362973 36.28739749 -52.03512814 36.26458775 -53.83398438 36.24414062 C-58.22348903 36.18927214 -62.61137427 36.10310875 -67 36 C-65.125 32.125 -65.125 32.125 -64 31 C-62.65984779 30.84417697 -61.31241097 30.74955858 -59.96484375 30.68359375 C-59.15595703 30.64169922 -58.34707031 30.59980469 -57.51367188 30.55664062 C-56.66353516 30.51732422 -55.81339844 30.47800781 -54.9375 30.4375 C-54.08349609 30.39431641 -53.22949219 30.35113281 -52.34960938 30.30664062 C-50.23327963 30.20023298 -48.11666187 30.09958269 -46 30 C-46.33 30 -46.66 30 -47 30 C-52 30 -57 30 -62 30 C-60.49816938 25.04395896 -58.01699732 21.23885023 -54 18 C-49.65879598 15.90752022 -45.1579609 14.49304703 -40.5625 13.0625 C-39.27162918 12.64309029 -37.98151345 12.22134989 -36.69213867 11.79736328 C-34.07428735 10.93834545 -31.45342721 10.0896258 -28.83007812 9.24755859 C-23.11866414 7.40234084 -17.46878443 5.38153992 -11.8125 3.375 C-9.94518441 2.71282583 -8.07680091 2.0536501 -6.20703125 1.3984375 C-5.4385083 1.12692871 -4.66998535 0.85541992 -3.87817383 0.57568359 C-2 0 -2 0 0 0 Z M-26 16 C-26.66 16.66 -27.32 17.32 -28 18 C-30.6015625 18.4140625 -30.6015625 18.4140625 -33.625 18.625 C-34.62789062 18.69976562 -35.63078125 18.77453125 -36.6640625 18.8515625 C-37.82035156 18.92503906 -37.82035156 18.92503906 -39 19 C-39 19.33 -39 19.66 -39 20 C-35.04 20 -31.08 20 -27 20 C-27 20.66 -27 21.32 -27 22 C-25.10820797 22.6814823 -25.10820797 22.6814823 -23 23 C-22.34 22.34 -21.68 21.68 -21 21 C-21.32041397 18.39719432 -21.32041397 18.39719432 -22 16 C-23.32 16 -24.64 16 -26 16 Z M-40 20 C-40.66 21.32 -41.32 22.64 -42 24 C-41.01 23.34 -40.02 22.68 -39 22 C-39.33 21.34 -39.66 20.68 -40 20 Z M-43 24 C-43.66 25.32 -44.32 26.64 -45 28 C-44.01 27.34 -43.02 26.68 -42 26 C-42.33 25.34 -42.66 24.68 -43 24 Z " fill="#9FDA81" transform="translate(230,69)"/>
<path d="M0 0 C-0.47529599 3.7505012 -0.95590802 7.50030247 -1.4375 11.25 C-1.63956055 12.84521484 -1.63956055 12.84521484 -1.84570312 14.47265625 C-2.04389648 16.00986328 -2.04389648 16.00986328 -2.24609375 17.578125 C-2.36654053 18.52075195 -2.4869873 19.46337891 -2.61108398 20.43457031 C-2.95105369 22.67713258 -3.40394074 24.81369963 -4 27 C1.68152149 24.87096499 1.68152149 24.87096499 5.1875 20.3125 C5.5896875 19.1678125 5.5896875 19.1678125 6 18 C8.4375 17.0625 8.4375 17.0625 11 17 C11.99 17.66 12.98 18.32 14 19 C14.3125 22 14.3125 22 14 25 C13.34 25.66 12.68 26.32 12 27 C10.97777344 26.9484375 9.95554687 26.896875 8.90234375 26.84375 C3.81976996 27.04725646 0.82842392 28.90063556 -3.4375 31.5 C-4.16904297 31.92925781 -4.90058594 32.35851563 -5.65429688 32.80078125 C-7.44421563 33.85367463 -9.22326854 34.92500282 -11 36 C-12.2077558 32.37673261 -11.54311128 31.35853631 -10 28 C-15.82074946 26.94380604 -19.06658503 26.93113383 -24.5859375 29.41796875 C-25.89655028 29.98458309 -27.20884129 30.54732561 -28.52246094 31.10693359 C-29.23414429 31.41322693 -29.94582764 31.71952026 -30.67907715 32.03509521 C-35.03767064 33.84714499 -39.4787889 35.43786432 -43.9140625 37.05078125 C-44.86609558 37.39817352 -45.81812866 37.7455658 -46.79901123 38.10348511 C-48.75082805 38.81472792 -50.70308244 39.52477104 -52.65576172 40.23364258 C-55.65625686 41.32385702 -58.65433431 42.42054932 -61.65234375 43.51757812 C-63.57277487 44.21653556 -65.49334277 44.9151173 -67.4140625 45.61328125 C-68.30364655 45.93927811 -69.19323059 46.26527496 -70.10977173 46.60115051 C-74.0483269 48.02531189 -77.84003045 49.36900539 -82 50 C-78.55268902 46.09721529 -74.59872127 43.8405835 -70.125 41.3125 C-64.72517283 38.20182347 -59.40610286 35.03167416 -54.1875 31.625 C-46.15139983 26.38213418 -37.90510489 21.49726935 -29.66259766 16.58789062 C-25.12338397 13.88084443 -20.59346096 11.15832829 -16.0625 8.4375 C-11.29010761 5.57378801 -11.29010761 5.57378801 -8.95751953 4.17919922 C-7.31444792 3.18942173 -5.68482741 2.17736217 -4.05859375 1.16015625 C-2 0 -2 0 0 0 Z M8 21 C8.33 21.99 8.66 22.98 9 24 C9.66 23.67 10.32 23.34 11 23 C11 22.34 11 21.68 11 21 C10.01 21 9.02 21 8 21 Z " fill="#9AD99F" transform="translate(242,0)"/>
<path d="M0 0 C3.60617186 1.44043245 4.99005184 3.07811095 6.9453125 6.39453125 C7.72455078 7.70454102 7.72455078 7.70454102 8.51953125 9.04101562 C9.31423828 10.41290039 9.31423828 10.41290039 10.125 11.8125 C10.66253906 12.71548828 11.20007813 13.61847656 11.75390625 14.54882812 C13.20811941 17.01663873 14.65187629 19.47259323 16 22 C16.42941895 22.79486816 16.85883789 23.58973633 17.30126953 24.40869141 C18.27507255 28.02013278 17.30967696 29.83988729 15.859375 33.25390625 C15.36566406 34.43791016 14.87195313 35.62191406 14.36328125 36.84179688 C13.82579029 38.08214805 13.28802719 39.32238133 12.75 40.5625 C12.22630761 41.80598605 11.70415537 43.05012194 11.18359375 44.29492188 C7.22544299 53.67890978 7.22544299 53.67890978 5 58 C0.59203848 56.44424888 -1.71245557 52.96004476 -4.4375 49.375 C-5.163927 48.42765991 -5.163927 48.42765991 -5.9050293 47.46118164 C-7.28233671 45.64964465 -8.6437914 43.8273624 -10 42 C-10.93972656 40.74896484 -10.93972656 40.74896484 -11.8984375 39.47265625 C-13.3125 37.4375 -13.3125 37.4375 -15 34 C-14.29541016 31.7121582 -14.29541016 31.7121582 -13 29 C-12.53126465 27.93418701 -12.0625293 26.86837402 -11.57958984 25.77026367 C-11.04543457 24.58150635 -10.5112793 23.39274902 -9.9609375 22.16796875 C-9.53235947 21.2130529 -9.53235947 21.2130529 -9.09512329 20.23884583 C-8.18936473 18.22130265 -7.2822047 16.20439326 -6.375 14.1875 C-5.75771956 12.81319278 -5.1405311 11.43884425 -4.5234375 10.06445312 C-3.01668897 6.70915669 -1.50868354 3.3544269 0 0 Z " fill="#57CFD8" transform="translate(99,52)"/>
<path d="M0 0 C0.99 0.33 1.98 0.66 3 1 C3.76921874 2.63877036 4.52495388 4.28640025 5.18359375 5.97265625 C6.01948053 8.04837509 6.97938283 10.00921441 8 12 C9.82319129 15.61185244 11.47437051 19.24949416 13 23 C13.42410156 23.84691406 13.84820312 24.69382812 14.28515625 25.56640625 C17.45768585 32.54209059 17.45768585 32.54209059 16.3046875 36.21484375 C14.70867259 38.66358662 12.9114532 40.78638102 11 43 C10.06174952 44.21840127 9.13130826 45.44283976 8.20703125 46.671875 C5.54204422 50.18591568 2.89694178 53.67230381 0 57 C-0.66 57 -1.32 57 -2 57 C-4.33867707 51.77714798 -6.66350134 46.54852795 -8.97363281 41.31298828 C-9.86420196 39.30603013 -10.76897242 37.30645395 -11.6796875 35.30859375 C-12.13601562 34.27863281 -12.59234375 33.24867187 -13.0625 32.1875 C-13.46597656 31.29417969 -13.86945313 30.40085937 -14.28515625 29.48046875 C-15.35625662 25.76380898 -14.77085798 23.52510686 -13.03686523 20.09448242 C-11.79877939 17.86674664 -10.50456441 15.68191787 -9.1875 13.5 C-8.74857422 12.75363281 -8.30964844 12.00726563 -7.85742188 11.23828125 C-5.48205283 7.24992014 -3.01839274 3.54608377 0 0 Z " fill="#4FC7DA" transform="translate(154,53)"/>
<path d="M0 0 C4.28773296 0.58308457 7.20675505 2.09939075 10.875 4.359375 C11.43222244 4.69988388 11.98944489 5.04039276 12.56355286 5.39122009 C14.38015156 6.50374634 16.19002847 7.62673032 18 8.75 C19.26743012 9.52904004 20.53525658 10.30743561 21.8034668 11.08520508 C24.96338719 13.02571362 28.11787189 14.97483651 31.2699585 16.92803955 C33.74766868 18.46326707 36.22753161 19.99500851 38.70703125 21.52734375 C41.23992751 23.09397817 43.77178831 24.66217902 46.30078125 26.23510742 C50.92669702 29.11049354 55.5686968 31.9564883 60.23046875 34.7734375 C61.79800903 35.72150269 61.79800903 35.72150269 63.3972168 36.6887207 C65.41373862 37.90650377 67.43203671 39.12135208 69.45239258 40.33276367 C73.86087571 42.99590612 78.09371212 45.61510224 82 49 C78.0348319 48.42356287 74.44886822 47.58202416 70.68823242 46.20581055 C69.67665573 45.83840256 68.66507904 45.47099457 67.62284851 45.092453 C66.54461319 44.6945607 65.46637787 44.2966684 64.35546875 43.88671875 C63.23110916 43.47589554 62.10674957 43.06507233 60.94831848 42.64179993 C58.57294262 41.77258069 56.19850597 40.90079106 53.82495117 40.02661133 C50.21307526 38.69691542 46.59803572 37.37613401 42.98242188 36.05664062 C40.66907681 35.20886257 38.35591956 34.36057183 36.04296875 33.51171875 C34.43472481 32.92398933 34.43472481 32.92398933 32.79399109 32.3243866 C28.1357063 30.60500854 23.49346794 28.85108355 18.91137695 26.93676758 C18.21518753 26.64683426 17.51899811 26.35690094 16.80171204 26.05818176 C13.27805289 23.98866579 11.82438593 20.52451029 10 17 C8.73632987 14.82914773 7.46518711 12.66263207 6.1875 10.5 C5.12376545 8.6673827 4.06083519 6.83429716 3 5 C2.67 6.65 2.34 8.3 2 10 C1.67 10 1.34 10 1 10 C0.67 6.7 0.34 3.4 0 0 Z " fill="#4FCAE3" transform="translate(14,1)"/>
<path d="M0 0 C3 1 3 1 4.01287842 2.57392883 C4.31123596 3.25247421 4.60959351 3.93101959 4.91699219 4.63012695 C5.26034607 5.39794998 5.60369995 6.16577301 5.9574585 6.9568634 C6.31696594 7.79223129 6.67647339 8.62759918 7.046875 9.48828125 C7.61006439 10.77039742 7.61006439 10.77039742 8.18463135 12.07841492 C8.97656496 13.88939076 9.76302115 15.70277015 10.54443359 17.51831055 C11.7436227 20.29771907 12.96616314 23.06597937 14.19140625 25.83398438 C14.95716249 27.59312677 15.72153202 29.35287358 16.484375 31.11328125 C16.85197937 31.94257645 17.21958374 32.77187164 17.59832764 33.626297 C18.0944455 34.79221626 18.0944455 34.79221626 18.60058594 35.98168945 C18.89576111 36.66262161 19.19093628 37.34355377 19.49505615 38.04512024 C20.10839363 40.4196437 19.86293871 41.72121465 19 44 C17.15234375 45.71875 17.15234375 45.71875 14.9375 47.5 C12.22096859 50.07560223 11.11426493 51.40402998 10.40234375 55.1171875 C10.37666087 58.1771189 10.43538853 60.99182415 11 64 C11.66 64.66 12.32 65.32 13 66 C13.3125 69 13.3125 69 13 72 C10 74 10 74 7.3125 73.625 C6.549375 73.41875 5.78625 73.2125 5 73 C4.375 70.1875 4.375 70.1875 4 67 C4.66 66.01 5.32 65.02 6 64 C6.31990137 61.63551158 6.53835907 59.25636502 6.6875 56.875 C6.77386719 55.61429688 6.86023438 54.35359375 6.94921875 53.0546875 C6.96597656 52.04664063 6.98273438 51.03859375 7 50 C6.67 49.67 6.34 49.34 6 49 C4.11817747 44.89897448 3.17168344 40.68272234 2.2734375 36.28515625 C2.12089508 35.5517955 1.96835266 34.81843475 1.81118774 34.06285095 C1.49125965 32.51772338 1.17370719 30.97210223 0.85839844 29.42602539 C0.37695096 27.07203902 -0.11572931 24.72059531 -0.609375 22.36914062 C-0.91995413 20.86211983 -1.22987199 19.35496256 -1.5390625 17.84765625 C-1.68590485 17.15060074 -1.83274719 16.45354523 -1.98403931 15.73536682 C-4.02100571 5.61659237 -4.02100571 5.61659237 -1.5 1.625 C-1.005 1.08875 -0.51 0.5525 0 0 Z M6 23 C6 26.3 6 29.6 6 33 C6.99 33 7.98 33 9 33 C8.67 32.67 8.34 32.34 8 32 C7.76807135 30.48530552 7.58784762 28.96245438 7.4375 27.4375 C7.35371094 26.61121094 7.26992187 25.78492188 7.18359375 24.93359375 C7.12300781 24.29550781 7.06242188 23.65742188 7 23 C6.67 23 6.34 23 6 23 Z M9 34 C9 34.66 9 35.32 9 36 C9.66 35.67 10.32 35.34 11 35 C10.34 34.67 9.68 34.34 9 34 Z M12 37 C12 39.64 12 42.28 12 45 C12.33 45 12.66 45 13 45 C13 42.36 13 39.72 13 37 C12.67 37 12.34 37 12 37 Z M7 68 C7 68.66 7 69.32 7 70 C7.99 70 8.98 70 10 70 C10 69.34 10 68.68 10 68 C9.01 68 8.02 68 7 68 Z " fill="#A8DD89" transform="translate(135,133)"/>
<path d="M0 0 C2.46800047 1.15173355 4.04783565 2.04783565 6 4 C6.03382874 5.86399841 6.03382874 5.86399841 5.72680664 8.09155273 C5.61684357 8.89849579 5.50688049 9.70543884 5.39358521 10.53683472 C4.80463209 14.22266651 4.12324921 17.87933208 3.37109375 21.53515625 C3.21713638 22.29928329 3.06317902 23.06341034 2.90455627 23.85069275 C2.41919311 26.2553857 1.92845074 28.65894232 1.4375 31.0625 C1.10445888 32.70760969 0.77177347 34.35279143 0.43945312 35.99804688 C-0.36959527 39.99954122 -1.18346475 44.00002699 -2 48 C-5.26011642 47.30621489 -6.79038253 46.54106009 -9 44 C-9 44.33 -9 44.66 -9 45 C-8.566875 45.39832031 -8.13375 45.79664063 -7.6875 46.20703125 C-4.719616 49.03064311 -3.118761 50.89156396 -2.671875 55.0625 C-2.72290954 57.18553671 -2.82495284 59.30812359 -2.984375 61.42578125 C-2.98953125 62.27527344 -2.9946875 63.12476563 -3 64 C-2.34 64.66 -1.68 65.32 -1 66 C-0.75 69 -0.75 69 -1 72 C-1.99 72.99 -1.99 72.99 -3 74 C-8.56818182 73.43181818 -8.56818182 73.43181818 -10 72 C-10.04080783 70.00041636 -10.04254356 67.99954746 -10 66 C-8.515 65.505 -8.515 65.505 -7 65 C-6.55995634 56.31536541 -6.55995634 56.31536541 -9.8125 48.6171875 C-11.94815882 46.79725432 -11.94815882 46.79725432 -14.1875 45.33203125 C-16 44 -16 44 -17 41 C-16.19897461 38.40307617 -16.19897461 38.40307617 -14.90234375 35.29296875 C-14.4328833 34.15448486 -13.96342285 33.01600098 -13.47973633 31.84301758 C-12.71632935 30.03353638 -12.71632935 30.03353638 -11.9375 28.1875 C-11.43178467 26.96893311 -10.92606934 25.75036621 -10.4050293 24.49487305 C-8.94767412 20.99184466 -7.47713175 17.49472855 -6 14 C-5.63229492 13.12891602 -5.26458984 12.25783203 -4.88574219 11.36035156 C-3.27887999 7.56395498 -1.65421131 3.77606886 0 0 Z M-4 23 C-4 25.97 -4 28.94 -4 32 C-3.67 32 -3.34 32 -3 32 C-3 29.03 -3 26.06 -3 23 C-3.33 23 -3.66 23 -4 23 Z M-5 32 C-5.33 32.66 -5.66 33.32 -6 34 C-5.34 34 -4.68 34 -4 34 C-4.33 33.34 -4.66 32.68 -5 32 Z M-7 68 C-7 68.66 -7 69.32 -7 70 C-6.01 70 -5.02 70 -4 70 C-4 69.34 -4 68.68 -4 68 C-4.99 68 -5.98 68 -7 68 Z " fill="#65AE6D" transform="translate(119,133)"/>
<path d="M0 0 C2.4659345 3.69890175 3.0839675 7.33044591 3.9453125 11.61328125 C4.12005096 12.46045212 4.29478943 13.30762299 4.474823 14.1804657 C4.84274039 15.97275663 5.20733326 17.76573276 5.56884766 19.55932617 C6.12116496 22.29351505 6.68673548 25.02471778 7.25390625 27.75585938 C7.61017647 29.49983646 7.96567055 31.24397232 8.3203125 32.98828125 C8.48902863 33.80097977 8.65774475 34.61367828 8.83157349 35.45100403 C9.67603374 39.68495169 10.32825331 43.65879836 10 48 C8.57421875 50.08203125 8.57421875 50.08203125 6.6875 51.8125 C5.76517578 52.68841797 5.76517578 52.68841797 4.82421875 53.58203125 C3 55 3 55 0 56 C-2.0078125 54.6015625 -2.0078125 54.6015625 -4.125 52.625 C-4.82882813 51.97789062 -5.53265625 51.33078125 -6.2578125 50.6640625 C-7.17937413 49.7838265 -8.09886426 48.90113574 -9 48 C-9.00879293 38.62123869 -6.86608106 29.33917721 -4.98876953 20.19604492 C-4.49335214 17.78008089 -4.0096546 15.36197065 -3.52734375 12.94335938 C-3.21681936 11.40611379 -2.90564629 9.86899907 -2.59375 8.33203125 C-2.44893188 7.60925491 -2.30411377 6.88647858 -2.15490723 6.14179993 C-1.11586893 1.11586893 -1.11586893 1.11586893 0 0 Z " fill="#99D779" transform="translate(128,143)"/>
<path d="M0 0 C5.19569693 1.52669768 9.69855081 3.8175431 14.4375 6.375 C16.11287015 7.27030097 17.78867209 8.16479426 19.46484375 9.05859375 C20.79684814 9.76991455 20.79684814 9.76991455 22.15576172 10.49560547 C25.17727292 12.09376444 28.21320265 13.66134039 31.25390625 15.22265625 C32.29297119 15.75777832 33.33203613 16.29290039 34.40258789 16.84423828 C36.44004039 17.89227288 38.47954233 18.93633441 40.52124023 19.97607422 C41.45266846 20.45705566 42.38409668 20.93803711 43.34375 21.43359375 C44.17068359 21.85697021 44.99761719 22.28034668 45.84960938 22.71655273 C49.59056998 24.9493218 51.27884223 27.09568459 52.6875 31.1875 C52.93886719 31.90292969 53.19023438 32.61835937 53.44921875 33.35546875 C53.63097656 33.89816406 53.81273437 34.44085938 54 35 C52 36 52 36 49.6809082 35.24316406 C48.73046631 34.83807617 47.78002441 34.43298828 46.80078125 34.015625 C45.75599609 33.57476562 44.71121094 33.13390625 43.63476562 32.6796875 C42.53841797 32.20789063 41.44207031 31.73609375 40.3125 31.25 C39.23548828 30.79367188 38.15847656 30.33734375 37.04882812 29.8671875 C28.63481863 26.29729506 28.63481863 26.29729506 25.80786133 24.97338867 C22.4386457 23.39856626 22.4386457 23.39856626 18.78515625 23.14453125 C18.21667969 23.36496094 17.64820312 23.58539063 17.0625 23.8125 C16.051875 24.204375 15.04125 24.59625 14 25 C14.09796875 23.96101563 14.1959375 22.92203125 14.296875 21.8515625 C13.92663987 17.04824878 12.60563809 15.74033647 9.25 12.375 C0 2.93567251 0 2.93567251 0 0 Z " fill="#57C8DE" transform="translate(20,35)"/>
<path d="M0 0 C5.17772746 -0.12385084 10.35458788 -0.21445571 15.53344727 -0.2746582 C17.29401676 -0.29976061 19.05448247 -0.33385028 20.81469727 -0.37719727 C23.34938179 -0.43804115 25.88268575 -0.46625113 28.41796875 -0.48828125 C29.59325386 -0.52699089 29.59325386 -0.52699089 30.7922821 -0.56648254 C35.14929593 -0.56870495 36.54140472 -0.38219346 40.03637695 2.53051758 C40.68437256 3.34544678 41.33236816 4.16037598 42 5 C41.54636829 6.58468677 41.08688548 8.16769924 40.625 9.75 C40.24214844 11.07257813 40.24214844 11.07257813 39.8515625 12.421875 C39.0790066 14.76080572 38.16374324 16.83442562 37 19 C23.38418815 16.06325627 12.04842373 10.34540028 1 2 C0.67 1.34 0.34 0.68 0 0 Z " fill="#4198C4" transform="translate(60,109)"/>
<path d="M0 0 C2.90834885 -0.26660183 5.60138268 -0.34779124 8.5078125 -0.29296875 C9.34843231 -0.28872391 10.18905212 -0.28447906 11.05514526 -0.28010559 C13.74541993 -0.26328532 16.43495099 -0.22562781 19.125 -0.1875 C20.94660378 -0.17245745 22.76821928 -0.1587683 24.58984375 -0.14648438 C29.06018324 -0.11337094 33.52996546 -0.06156637 38 0 C34.3181127 3.77814068 30.64695335 6.79797282 26.125 9.5 C25.47950195 9.88655762 24.83400391 10.27311523 24.16894531 10.67138672 C17.52076413 14.50316829 10.50431049 17.32596151 3 19 C0 18 0 18 -1.23828125 15.63671875 C-1.59277344 14.66347656 -1.94726562 13.69023438 -2.3125 12.6875 C-2.67988281 11.72199219 -3.04726562 10.75648437 -3.42578125 9.76171875 C-4 7 -4 7 -3.23046875 4.83203125 C-2.62138672 3.92517578 -2.62138672 3.92517578 -2 3 C-1.34 2.01 -0.68 1.02 0 0 Z " fill="#60AF5B" transform="translate(158,109)"/>
<path d="M0 0 C3.14348288 -0.49743026 4.97555066 -0.75843272 8 0 C10.94780635 2.59640205 12.9722413 5.7345795 15.125 9 C16.29413299 10.68759551 17.46340256 12.3750964 18.6328125 14.0625 C19.4666748 15.30580078 19.4666748 15.30580078 20.31738281 16.57421875 C22.40254228 19.58033374 24.68115858 22.40475859 27.02685547 25.2109375 C28 27 28 27 27.78588867 29.07910156 C26.6141488 31.94311192 24.65760701 33.62370033 22.4375 35.75 C21.61121094 36.54921875 20.78492188 37.3484375 19.93359375 38.171875 C19.29550781 38.77515625 18.65742188 39.3784375 18 40 C14.15238941 37.43492627 13.33768975 34.46369455 11.75 30.3125 C8.91810048 23.1347298 5.78717792 16.19275868 2.3828125 9.26953125 C1.0508564 6.12024521 0.40036055 3.38253338 0 0 Z " fill="#9AD87B" transform="translate(141,132)"/>
<path d="M0 0 C1.19625 0.165 2.3925 0.33 3.625 0.5 C2.96532697 4.88390304 1.37458387 8.67896587 -0.4375 12.6875 C-0.74115479 13.37005859 -1.04480957 14.05261719 -1.35766602 14.75585938 C-2.01137618 16.22409605 -2.66729715 17.69134998 -3.32519531 19.15771484 C-4.42853119 21.61943681 -5.52375277 24.08464648 -6.6171875 26.55078125 C-8.53210118 30.8691371 -10.45227918 35.18511483 -12.375 39.5 C-16.42302459 39.5 -17.28879846 38.05007158 -20.125 35.25 C-20.94484375 34.46109375 -21.7646875 33.6721875 -22.609375 32.859375 C-24.375 30.5 -24.375 30.5 -24.15600586 28.60546875 C-23.27338359 26.22605817 -22.14692192 24.4981731 -20.64453125 22.453125 C-20.08830078 21.69 -19.53207031 20.926875 -18.95898438 20.140625 C-18.37439453 19.35171875 -17.78980469 18.5628125 -17.1875 17.75 C-16.62224609 16.9765625 -16.05699219 16.203125 -15.47460938 15.40625 C-14.34182217 13.85953483 -13.20219865 12.31780234 -12.05566406 10.78125 C-10.9333655 9.25789762 -9.83615343 7.71574787 -8.76464844 6.15625 C-8.25579102 5.42921875 -7.74693359 4.7021875 -7.22265625 3.953125 C-6.77801025 3.29989258 -6.33336426 2.64666016 -5.87524414 1.97363281 C-3.90697898 0.04028074 -2.72117068 0.00356524 0 0 Z " fill="#5FAB85" transform="translate(112.375,131.5)"/>
<path d="M0 0 C8.24847753 1.53481945 16.0319669 4.23292316 23.93066406 7.00317383 C26.25383083 7.81383676 28.58357177 8.60325786 30.9140625 9.39257812 C32.40670048 9.91277169 33.89890424 10.43421326 35.390625 10.95703125 C36.42512787 11.30263847 36.42512787 11.30263847 37.48052979 11.65522766 C44.08732801 14.02308085 47.94159998 18.43848887 52 24 C52 24.66 52 25.32 52 26 C38.80108903 27.22306511 38.80108903 27.22306511 34.48046875 24.2890625 C32.23718282 21.67268269 30.53744712 19.07489424 29 16 C26.41394668 15.5316735 26.41394668 15.5316735 23.4375 15.375 C22.42558594 15.30023438 21.41367187 15.22546875 20.37109375 15.1484375 C19.19740234 15.07496094 19.19740234 15.07496094 18 15 C18 16.32 18 17.64 18 19 C15.6875 19.6875 15.6875 19.6875 13 20 C11.125 18.875 11.125 18.875 10 17 C10.3125 14.3125 10.3125 14.3125 11 12 C11.66 12 12.32 12 13 12 C13 11.34 13 10.68 13 10 C12.34 9.773125 11.68 9.54625 11 9.3125 C8.42919876 8.18777446 6.09951824 6.98486244 3.6875 5.5625 C2.99011719 5.15128906 2.29273438 4.74007812 1.57421875 4.31640625 C1.05472656 3.88199219 0.53523438 3.44757813 0 3 C0 2.01 0 1.02 0 0 Z " fill="#55B8D4" transform="translate(36,73)"/>
<path d="M0 0 C-0.46206924 7.20974699 -2.24855442 12.93830686 -5.0625 19.5625 C-5.43955078 20.47580078 -5.81660156 21.38910156 -6.20507812 22.33007812 C-7.12652316 24.55787561 -8.05821579 26.78074295 -9 29 C-13 29 -13 29 -14.6315918 27.6105957 C-15.14890869 26.97210693 -15.66622559 26.33361816 -16.19921875 25.67578125 C-16.76833984 24.97646484 -17.33746094 24.27714844 -17.92382812 23.55664062 C-18.50583984 22.81607422 -19.08785156 22.07550781 -19.6875 21.3125 C-20.28111328 20.59126953 -20.87472656 19.87003906 -21.48632812 19.12695312 C-24.4888701 15.37805522 -26.30041158 12.84560908 -27 8 C-22.876506 6.66197735 -18.75096648 5.33037699 -14.625 4 C-13.449375 3.6184375 -12.27375 3.236875 -11.0625 2.84375 C-9.94101563 2.4828125 -8.81953125 2.121875 -7.6640625 1.75 C-6.62717285 1.41484375 -5.5902832 1.0796875 -4.52197266 0.734375 C-2 0 -2 0 0 0 Z " fill="#57BCCF" transform="translate(114,80)"/>
<path d="M0 0 C4.33890563 1.31566816 8.66980127 2.65598705 13 4 C14.155 4.34675781 15.31 4.69351563 16.5 5.05078125 C17.5725 5.38464844 18.645 5.71851562 19.75 6.0625 C20.73484375 6.36285156 21.7196875 6.66320312 22.734375 6.97265625 C23.48203125 7.31167969 24.2296875 7.65070313 25 8 C25.33 8.99 25.66 9.98 26 11 C24.9519043 12.76171875 24.9519043 12.76171875 23.32421875 14.6875 C22.74349609 15.38617188 22.16277344 16.08484375 21.56445312 16.8046875 C20.94505859 17.52914062 20.32566406 18.25359375 19.6875 19 C18.48213986 20.43671771 17.27767673 21.87418858 16.07421875 23.3125 C15.53369873 23.94800781 14.99317871 24.58351563 14.4362793 25.23828125 C12.83042332 27.15054498 12.83042332 27.15054498 11 30 C10.34 30 9.68 30 9 30 C7.70677968 27.10485806 6.41570259 24.20876516 5.125 21.3125 C4.57779297 20.08756836 4.57779297 20.08756836 4.01953125 18.83789062 C3.0058391 16.56169098 2.00260414 14.28109802 1 12 C0.5771875 11.0615625 0.154375 10.123125 -0.28125 9.15625 C-1.34928787 5.95213638 -0.63851608 3.25643202 0 0 Z " fill="#449DC4" transform="translate(143,80)"/>
<path d="M0 0 C-1.98 0.99 -1.98 0.99 -4 2 C-4 2.66 -4 3.32 -4 4 C-7.05229584 5.92585333 -10.20815815 7.61371603 -13.375 9.34375 C-14.674375 10.16359375 -14.674375 10.16359375 -16 11 C-16 11.66 -16 12.32 -16 13 C-16.804375 13.309375 -17.60875 13.61875 -18.4375 13.9375 C-20.89080405 14.76335345 -20.89080405 14.76335345 -22 16 C-23.10021484 15.98259766 -23.10021484 15.98259766 -24.22265625 15.96484375 C-27.39871454 15.93426272 -29.94369782 16.09841154 -33 17 C-35.06787614 19.27842726 -35.06787614 19.27842726 -36.75 22.0625 C-38.609375 24.80859375 -38.609375 24.80859375 -41 27 C-46.13756301 27.8859675 -50.84456992 27.60415196 -56 27 C-54.49687327 22.03968178 -52.03346678 18.22844283 -48 15 C-43.53958828 12.8719268 -38.89709015 11.40314687 -34.1875 9.9375 C-32.88103233 9.51353097 -31.57528716 9.08732929 -30.27026367 8.65893555 C-27.69821861 7.81622284 -25.12327138 6.98348626 -22.54589844 6.15722656 C-17.22953098 4.42219615 -11.98309218 2.50414455 -6.7487793 0.53686523 C-2.21801123 -1.10900561 -2.21801123 -1.10900561 0 0 Z " fill="#96D699" transform="translate(224,72)"/>
<path d="M0 0 C0 0.99 0 1.98 0 3 C-5.56752794 4.95980037 -11.13599237 6.91690829 -16.70532227 8.87158203 C-18.59783156 9.53621616 -20.4900878 10.20157131 -22.38208008 10.86767578 C-25.10951786 11.82776832 -27.8378703 12.78522104 -30.56640625 13.7421875 C-31.40522842 14.03809784 -32.2440506 14.33400818 -33.10829163 14.6388855 C-37.70539694 16.2480676 -42.3018135 17.71441285 -47 19 C-48 17 -48 17 -46.875 13.25 C-43.7379525 7.17543453 -37.2123207 5.0074084 -31 3 C-28.32421875 2.8984375 -28.32421875 2.8984375 -26 3 C-22.29827466 2.2046876 -22.29827466 2.2046876 -19 1 C-18.67 0.34 -18.34 -0.32 -18 -1 C-12.73586741 -3.31621834 -5.45804105 -0.95515718 0 0 Z " fill="#76C58D" transform="translate(225,64)"/>
<path d="M0 0 C3.22886009 -0.11667875 6.45717445 -0.18740546 9.6875 -0.25 C11.05551758 -0.30027344 11.05551758 -0.30027344 12.45117188 -0.3515625 C16.5987579 -0.41189102 19.26131639 -0.41059807 22.9375 1.6328125 C25.28021663 4.32161227 26.78169053 6.90515786 28.3125 10.125 C28.82425781 11.17945313 29.33601563 12.23390625 29.86328125 13.3203125 C31 16 31 16 31 18 C24.73 18 18.46 18 12 18 C11.505 16.47375 11.01 14.9475 10.5 13.375 C8.52823165 8.33127371 6.14146746 6.00121315 1.609375 3.15625 C1.07828125 2.7746875 0.5471875 2.393125 0 2 C0 1.34 0 0.68 0 0 Z " fill="#8DDADC" transform="translate(108,47)"/>
<path d="M0 0 C-0.47529599 3.7505012 -0.95590802 7.50030247 -1.4375 11.25 C-1.57220703 12.31347656 -1.70691406 13.37695312 -1.84570312 14.47265625 C-1.97783203 15.49746094 -2.10996094 16.52226562 -2.24609375 17.578125 C-2.36654053 18.52075195 -2.4869873 19.46337891 -2.61108398 20.43457031 C-2.95105369 22.67713258 -3.40394074 24.81369963 -4 27 C1.68152149 24.87096499 1.68152149 24.87096499 5.1875 20.3125 C5.455625 19.549375 5.72375 18.78625 6 18 C8.4375 17.0625 8.4375 17.0625 11 17 C11.99 17.66 12.98 18.32 14 19 C14.3125 22 14.3125 22 14 25 C13.34 25.66 12.68 26.32 12 27 C10.97777344 26.9484375 9.95554688 26.896875 8.90234375 26.84375 C3.81976996 27.04725646 0.82842392 28.90063556 -3.4375 31.5 C-4.16904297 31.92925781 -4.90058594 32.35851563 -5.65429688 32.80078125 C-7.44421563 33.85367463 -9.22326854 34.92500282 -11 36 C-12.2077558 32.37673261 -11.54311128 31.35853631 -10 28 C-12.475 27.01 -12.475 27.01 -15 26 C-14.46323088 20.9738891 -12.05581499 17.37760591 -9.4375 13.1875 C-9.01275391 12.49462891 -8.58800781 11.80175781 -8.15039062 11.08789062 C-7.10690544 9.38783049 -6.05434704 7.69334524 -5 6 C-5.66 6 -6.32 6 -7 6 C-8.33783393 5.68521554 -9.67203709 5.35412344 -11 5 C-9.54462432 4.16151196 -8.08559627 3.32936066 -6.625 2.5 C-5.40683594 1.80390625 -5.40683594 1.80390625 -4.1640625 1.09375 C-2 0 -2 0 0 0 Z M8 21 C8.33 21.99 8.66 22.98 9 24 C9.66 23.67 10.32 23.34 11 23 C11 22.34 11 21.68 11 21 C10.01 21 9.02 21 8 21 Z " fill="#B7E39C" transform="translate(242,0)"/>
<path d="M0 0 C3.36129612 2.71540497 4.67211555 6.3849623 6.28515625 10.265625 C6.58691269 10.97724792 6.88866913 11.68887085 7.1995697 12.42205811 C7.83583546 13.92687433 8.46853332 15.43320345 9.09790039 16.94091797 C10.05468156 19.23128402 11.02341847 21.51629422 11.99414062 23.80078125 C12.61269847 25.26792611 13.23055947 26.735365 13.84765625 28.203125 C14.13415543 28.87941956 14.4206546 29.55571411 14.71583557 30.25250244 C16.45930661 34.44571405 17.83020719 38.61105404 19 43 C18 44 18 44 14.9375 44.0625 C13.968125 44.041875 12.99875 44.02125 12 44 C7.89815083 36.14239518 4.06433895 28.17818902 0.5 20.0625 C0.13777344 19.27061279 -0.22445312 18.47872559 -0.59765625 17.6628418 C-2.73709 12.69023144 -3.38012527 9.42437297 -2 4 C-0.9375 1.5625 -0.9375 1.5625 0 0 Z " fill="#A1DA93" transform="translate(128,78)"/>
<path d="M0 0 C-0.28035597 11.29069957 -4.78573285 21.15082872 -10 31 C-10.66 31 -11.32 31 -12 31 C-12 30.34 -12 29.68 -12 29 C-17.94 28.67 -23.88 28.34 -30 28 C-30.33 28.99 -30.66 29.98 -31 31 C-32.84765625 31.73046875 -32.84765625 31.73046875 -35.0625 32.1875 C-35.79597656 32.34605469 -36.52945313 32.50460938 -37.28515625 32.66796875 C-37.85105469 32.77753906 -38.41695312 32.88710937 -39 33 C-39.33 32.34 -39.66 31.68 -40 31 C-37.48580492 29.81684938 -34.96521326 28.65361715 -32.4375 27.5 C-31.73302734 27.16613281 -31.02855469 26.83226563 -30.30273438 26.48828125 C-25.60302218 24.36583058 -22.15422006 23.62071442 -17 24 C-16.855625 23.4225 -16.71125 22.845 -16.5625 22.25 C-16.376875 21.5075 -16.19125 20.765 -16 20 C-15.87431641 19.09701172 -15.87431641 19.09701172 -15.74609375 18.17578125 C-14.68280409 15.07498365 -12.74998137 13.29784438 -10.5 10.9375 C-7.04912093 7.39701253 -7.04912093 7.39701253 -5 3 C-4.34 3 -3.68 3 -3 3 C-3 2.34 -3 1.68 -3 1 C-1 0 -1 0 0 0 Z " fill="#A2DC8A" transform="translate(237,35)"/>
<path d="M0 0 C2.46800047 1.15173355 4.04783565 2.04783565 6 4 C6.03382874 5.86399841 6.03382874 5.86399841 5.72680664 8.09155273 C5.61684357 8.89849579 5.50688049 9.70543884 5.39358521 10.53683472 C4.80463209 14.22266651 4.12324921 17.87933208 3.37109375 21.53515625 C3.21713638 22.29928329 3.06317902 23.06341034 2.90455627 23.85069275 C2.41919311 26.2553857 1.92845074 28.65894232 1.4375 31.0625 C1.10445888 32.70760969 0.77177347 34.35279143 0.43945312 35.99804688 C-0.36959527 39.99954122 -1.18346475 44.00002699 -2 48 C-5.23016434 47.27254563 -7.0591543 46.81422626 -9 44 C-9.44242648 40.53432593 -9.38665268 38.66785463 -7.625 35.625 C-7.08875 35.08875 -6.5525 34.5525 -6 34 C-5.34 34 -4.68 34 -4 34 C-4.33 33.34 -4.66 32.68 -5 32 C-5.06996014 30.29297265 -5.08440154 28.58331997 -5.0625 26.875 C-5.05347656 25.96492188 -5.04445313 25.05484375 -5.03515625 24.1171875 C-5.02355469 23.41851562 -5.01195313 22.71984375 -5 22 C-4.34 21.67 -3.68 21.34 -3 21 C-2.19497781 18.53792482 -1.50401685 16.13174861 -0.875 13.625 C-0.69324219 12.93921875 -0.51148437 12.2534375 -0.32421875 11.546875 C0.43346214 8.61869471 1 6.03665271 1 3 C0.01 3.495 0.01 3.495 -1 4 C-0.67 2.68 -0.34 1.36 0 0 Z M-4 23 C-4 25.97 -4 28.94 -4 32 C-3.67 32 -3.34 32 -3 32 C-3 29.03 -3 26.06 -3 23 C-3.33 23 -3.66 23 -4 23 Z " fill="#9ED795" transform="translate(119,133)"/>
<path d="M0 0 C1.32 0 2.64 0 4 0 C5.92082704 2.04484894 7.53985209 4.00058469 9.1875 6.25 C10.1567421 7.55659083 11.1268067 8.86257188 12.09765625 10.16796875 C12.58121582 10.82200684 13.06477539 11.47604492 13.56298828 12.14990234 C15.13421022 14.23166439 15.13421022 14.23166439 17.68359375 16.86328125 C25.43320411 25.43125047 25.18363723 34.00823167 24.82397461 45.03564453 C24.80964473 47.23709406 24.80964473 47.23709406 27 49 C26.625 52.125 26.625 52.125 26 55 C20.56559513 56.32841008 20.56559513 56.32841008 18.0625 54.875 C17 53 17 53 17.25 50.375 C18 48 18 48 19 47 C19.2794009 43.57056561 19.23181381 40.12696315 19.25 36.6875 C19.270625 35.72392578 19.29125 34.76035156 19.3125 33.76757812 C19.31765625 32.83751953 19.3228125 31.90746094 19.328125 30.94921875 C19.3374707 30.09674561 19.34681641 29.24427246 19.35644531 28.3659668 C18.92654448 25.51242638 17.79829004 24.20691139 16 22 C16 21.34 16 20.68 16 20 C15.34 20 14.68 20 14 20 C12.59545898 18.48706055 12.59545898 18.48706055 10.99609375 16.38671875 C10.42052734 15.63326172 9.84496094 14.87980469 9.25195312 14.10351562 C8.65318359 13.30623047 8.05441406 12.50894531 7.4375 11.6875 C6.53354492 10.50897461 6.53354492 10.50897461 5.61132812 9.30664062 C1.13411632 3.40234897 1.13411632 3.40234897 0 0 Z M21 50 C21 50.66 21 51.32 21 52 C21.66 52 22.32 52 23 52 C23 51.34 23 50.68 23 50 C22.34 50 21.68 50 21 50 Z " fill="#9BD487" transform="translate(155,133)"/>
<path d="M0 0 C1.32 0 2.64 0 4 0 C4 12.87 4 25.74 4 39 C-3.40850277 35.29574861 -3.40850277 35.29574861 -5 33 C-6.04545304 22.39340371 -2.09028059 10.33664813 0 0 Z " fill="#5DAB5B" transform="translate(124,158)"/>
<path d="M0 0 C3.50715653 -0.64681166 6.51658272 -0.85442311 10 0 C11.84765625 2.19140625 11.84765625 2.19140625 13.5625 4.9375 C16.04183482 8.64636654 16.04183482 8.64636654 19.93896484 10.50732422 C22.98117383 10.83783748 25.95264804 10.90127118 29.01000977 10.80053711 C34.54874034 10.65104455 34.54874034 10.65104455 37.515625 12.9453125 C39 15 39 15 39 16 C26.46 16 13.92 16 1 16 C2.98 13.69 4.96 11.38 7 9 C8.36634017 7.02240239 9.71271718 5.02994599 11 3 C9.01432292 2.8046875 7.02864583 2.609375 5.04296875 2.4140625 C3 2 3 2 0 0 Z " fill="#49AECE" transform="translate(54,89)"/>
<path d="M0 0 C0.99 0.33 1.98 0.66 3 1 C-0.19112962 6.00231129 -3.78975751 10.5501784 -7.5625 15.125 C-8.71030625 16.52288695 -9.85746279 17.92130768 -11.00390625 19.3203125 C-11.50736572 19.93148926 -12.0108252 20.54266602 -12.52954102 21.17236328 C-13.01479248 21.7754834 -13.50004395 22.37860352 -14 23 C-14.82395264 23.95181152 -14.82395264 23.95181152 -15.66455078 24.92285156 C-17.28714616 27.44662514 -17.3737815 28.93369287 -17.36328125 31.9140625 C-17.36231445 33.30238281 -17.36231445 33.30238281 -17.36132812 34.71875 C-17.34521484 35.6778125 -17.32910156 36.636875 -17.3125 37.625 C-17.31572266 38.59179688 -17.31894531 39.55859375 -17.32226562 40.5546875 C-17.60786996 45.81531548 -17.60786996 45.81531548 -15 50 C-14.75 52.5 -14.75 52.5 -15 55 C-17 57 -17 57 -19.5 57.25 C-22 57 -22 57 -24 55 C-24.125 51.875 -24.125 51.875 -24 49 C-22.515 48.505 -22.515 48.505 -21 48 C-21.0628418 47.0255896 -21.0628418 47.0255896 -21.12695312 46.03149414 C-22.16751522 27.51047672 -22.16751522 27.51047672 -19.5703125 21.92578125 C-17.625 19.875 -17.625 19.875 -15.43359375 18.046875 C-12.312696 15.42191445 -10.09789285 12.39325372 -7.6875 9.125 C-2.78200136 2.57492682 -2.78200136 2.57492682 0 0 Z M-21 51 C-21 51.66 -21 52.32 -21 53 C-20.01 52.67 -19.02 52.34 -18 52 C-18.99 51.67 -19.98 51.34 -21 51 Z " fill="#71A1C2" transform="translate(100,132)"/>
<path d="M0 0 C0.99 0 1.98 0 3 0 C5.73779903 10.20563476 7.66576476 19.3662573 7 30 C8.32 30.33 9.64 30.66 11 31 C11 31.66 11 32.32 11 33 C11.99 33.33 12.98 33.66 14 34 C14.44041451 39.28497409 14.44041451 39.28497409 14 42 C11.5 44.5 11.5 44.5 9 46 C8.34 45.67 7.68 45.34 7 45 C6.2494967 42.26270218 5.62110711 39.57743591 5.0546875 36.80078125 C4.87994904 35.97297653 4.70521057 35.14517181 4.525177 34.2922821 C4.15637984 32.53531459 3.79182764 30.77745159 3.43115234 29.01879883 C2.88042293 26.33888855 2.31437144 23.66256549 1.74609375 20.98632812 C1.38969918 19.27883881 1.03420183 17.57116193 0.6796875 15.86328125 C0.51097137 15.0661824 0.34225525 14.26908356 0.16842651 13.4478302 C-0.68564544 9.24106557 -1.28836421 5.3191578 -1 1 C-0.67 0.67 -0.34 0.34 0 0 Z " fill="#6DB16F" transform="translate(133,136)"/>
<path d="M0 0 C2.64 0 5.28 0 8 0 C7.34032697 4.38390304 5.74958387 8.17896587 3.9375 12.1875 C3.63384521 12.87005859 3.33019043 13.55261719 3.01733398 14.25585938 C2.36362382 15.72409605 1.70770285 17.19134998 1.04980469 18.65771484 C-0.05353119 21.11943681 -1.14875277 23.58464648 -2.2421875 26.05078125 C-4.15710118 30.3691371 -6.07727918 34.68511483 -8 39 C-8.99 39 -9.98 39 -11 39 C-11.33 38.34 -11.66 37.68 -12 37 C-11.34 37 -10.68 37 -10 37 C-10.350625 36.484375 -10.70125 35.96875 -11.0625 35.4375 C-12.36624553 32.04776161 -12.00929931 29.40249947 -11 26 C-9.24570944 22.46053987 -7.17312492 19.14880722 -5.0625 15.8125 C-3.96899882 14.04882968 -2.87651169 12.28453015 -1.78515625 10.51953125 C-1.29926025 9.74714111 -0.81336426 8.97475098 -0.31274414 8.17895508 C0.90355791 6.16007916 1.97903217 4.12311814 3 2 C2.01 1.34 1.02 0.68 0 0 Z " fill="#8DD488" transform="translate(108,132)"/>
<path d="M0 0 C6.37093902 1.01564603 12.13599266 3.78633592 18.02978516 6.30004883 C19.42644443 6.89161914 20.82689097 7.47432653 22.23095703 8.0480957 C24.2694758 8.88121079 26.29532074 9.74007438 28.3203125 10.60546875 C29.52961426 11.11231201 30.73891602 11.61915527 31.98486328 12.14135742 C35.56940442 14.35100209 36.5752057 16.08390435 38 20 C38 20.99 38 21.98 38 23 C32.73378394 22.40421223 28.05591981 21.18691204 23.0625 19.4375 C22.37865234 19.20353516 21.69480469 18.96957031 20.99023438 18.72851562 C19.32491499 18.15788171 17.66217507 17.57972902 16 17 C16.639375 16.87625 17.27875 16.7525 17.9375 16.625 C18.618125 16.41875 19.29875 16.2125 20 16 C20.33 15.34 20.66 14.68 21 14 C20.42443359 13.67725098 19.84886719 13.35450195 19.25585938 13.02197266 C16.66611959 11.56406449 14.08304818 10.09472869 11.5 8.625 C10.14068359 7.86316406 10.14068359 7.86316406 8.75390625 7.0859375 C7.46806641 6.35117188 7.46806641 6.35117188 6.15625 5.6015625 C5.36025391 5.15119629 4.56425781 4.70083008 3.74414062 4.23681641 C2.88079102 3.62459229 2.88079102 3.62459229 2 3 C2 2.34 2 1.68 2 1 C1.34 0.67 0.68 0.34 0 0 Z " fill="#60C5DA" transform="translate(40,59)"/>
<path d="M0 0 C4.95 0 9.9 0 15 0 C17 5 17 5 17 8 C13.04 8 9.08 8 5 8 C4.566875 9.670625 4.566875 9.670625 4.125 11.375 C3 15 3 15 1 17 C-2.625 17.125 -2.625 17.125 -6 17 C-5.49111309 10.72372814 -2.6689946 5.61173224 0 0 Z " fill="#77BB99" transform="translate(115,105)"/>
<path d="M0 0 C0.99 0 1.98 0 3 0 C3.31710938 0.59683594 3.63421875 1.19367188 3.9609375 1.80859375 C4.42757812 2.67613281 4.89421875 3.54367188 5.375 4.4375 C5.90867188 5.43265625 6.44234375 6.4278125 6.9921875 7.453125 C8.46146261 10.11589887 10.050853 12.67632689 11.6953125 15.234375 C12.15760254 15.96986572 12.61989258 16.70535645 13.09619141 17.46313477 C14.01843306 18.92444671 14.96040448 20.37352637 15.92333984 21.80834961 C19.08208958 26.87627959 19.08208958 26.87627959 18.83203125 30.29931641 C18.28125 32.51953125 18.28125 32.51953125 17 36 C13.89832223 34.96091267 13.03660458 34.06243066 11.35253906 31.19018555 C10.82885742 30.0175415 10.30517578 28.84489746 9.765625 27.63671875 C9.48273621 27.00772171 9.19984741 26.37872467 8.90838623 25.73066711 C8.31403465 24.40109625 7.72605289 23.06866203 7.14404297 21.73364258 C6.25460123 19.69803057 5.34198943 17.67407345 4.42578125 15.65039062 C-0.39108813 4.80891463 -0.39108813 4.80891463 0 0 Z " fill="#67B17D" transform="translate(142,133)"/>
<path d="M0 0 C1.01060918 0.98927706 2.00904513 1.99103595 3 3 C4.23712022 3.79775975 5.50423815 4.55033946 6.79296875 5.26171875 C7.50517578 5.65810547 8.21738281 6.05449219 8.95117188 6.46289062 C9.68916016 6.86701172 10.42714844 7.27113281 11.1875 7.6875 C11.93708984 8.10322266 12.68667969 8.51894531 13.45898438 8.94726562 C15.30348466 9.96937725 17.1514131 10.9852981 19 12 C19 13.32 19 14.64 19 16 C11.91053956 14.76394271 5.22469473 12.94281922 -1.5625 10.5625 C-2.46291016 10.26279297 -3.36332031 9.96308594 -4.29101562 9.65429688 C-5.14501953 9.35716797 -5.99902344 9.06003906 -6.87890625 8.75390625 C-7.6479126 8.48908447 -8.41691895 8.2242627 -9.20922852 7.95141602 C-11 7 -11 7 -12 4 C-10.3767313 3.3291288 -8.75132422 2.66342971 -7.125 2 C-6.22007813 1.62875 -5.31515625 1.2575 -4.3828125 0.875 C-2 0 -2 0 0 0 Z " fill="#4088B8" transform="translate(42,60)"/>
<path d="M0 0 C5.17772746 -0.12385084 10.35458788 -0.21445571 15.53344727 -0.2746582 C17.29401676 -0.29976061 19.05448247 -0.33385028 20.81469727 -0.37719727 C23.34938179 -0.43804115 25.88268575 -0.46625113 28.41796875 -0.48828125 C29.59325386 -0.52699089 29.59325386 -0.52699089 30.7922821 -0.56648254 C35.14929593 -0.56870495 36.54140472 -0.38219346 40.03637695 2.53051758 C40.68437256 3.34544678 41.33236816 4.16037598 42 5 C41.67 5.66 41.34 6.32 41 7 C40.34 6.34 39.68 5.68 39 5 C36.32138667 5.16723851 36.32138667 5.16723851 33.3125 5.8125 C31.20879639 6.21078696 29.1046038 6.60649748 27 7 C25.87207031 7.24878906 24.74414062 7.49757813 23.58203125 7.75390625 C19.254311 8.05123054 16.22450143 6.88544273 12.375 5.125 C8.29605817 3.33124847 4.44236686 1.66380194 0 1 C0 0.67 0 0.34 0 0 Z " fill="#49A4C9" transform="translate(60,109)"/>
<path d="M0 0 C-0.17456055 1.83886719 -0.17456055 1.83886719 -1 4 C-3.25317383 5.37207031 -3.25317383 5.37207031 -6.20703125 6.578125 C-7.26857422 7.01640625 -8.33011719 7.4546875 -9.42382812 7.90625 C-10.54208984 8.3496875 -11.66035156 8.793125 -12.8125 9.25 C-13.91916016 9.70890625 -15.02582031 10.1678125 -16.16601562 10.640625 C-24.42947824 14 -24.42947824 14 -29 14 C-26.99543451 5.06536524 -26.99543451 5.06536524 -22.75 2.375 C-18.47067673 0.8059148 -16.41943837 1.22465993 -12 2 C-0.55913978 0 -0.55913978 0 0 0 Z " fill="#86CD9A" transform="translate(211,56)"/>
<path d="M0 0 C6.25909288 1.11854511 12.4973086 2.28202361 18.7109375 3.6328125 C21.04279314 4.08846392 21.04279314 4.08846392 23.6015625 3.8671875 C26 4 26 4 27.70703125 5.23828125 C29.12786202 7.17421683 29.90689041 8.92001501 30.6875 11.1875 C30.93886719 11.90292969 31.19023438 12.61835937 31.44921875 13.35546875 C31.63097656 13.89816406 31.81273438 14.44085938 32 15 C30 16 30 16 27.64916992 15.22729492 C26.68599854 14.81584229 25.72282715 14.40438965 24.73046875 13.98046875 C23.67666016 13.53509766 22.62285156 13.08972656 21.53710938 12.63085938 C20.43173828 12.15455078 19.32636719 11.67824219 18.1875 11.1875 C16.01437152 10.26420852 13.84119609 9.34102753 11.66796875 8.41796875 C10.70141357 8.00313232 9.7348584 7.5882959 8.73901367 7.16088867 C6.91123701 6.38621374 5.06242211 5.65944114 3.1965332 4.98168945 C1 4 1 4 0.1875 1.875 C0.125625 1.25625 0.06375 0.6375 0 0 Z " fill="#54BCD5" transform="translate(42,55)"/>
<path d="M0 0 C1.13199353 0.9080162 2.25532363 1.82683826 3.375 2.75 C4.00148437 3.26046875 4.62796875 3.7709375 5.2734375 4.296875 C7 6 7 6 9 10 C-2.22 10 -13.44 10 -25 10 C-24.67 8.68 -24.34 7.36 -24 6 C-22.77023438 5.98582031 -21.54046875 5.97164063 -20.2734375 5.95703125 C-18.64058842 5.9101103 -17.00777708 5.86186303 -15.375 5.8125 C-14.56675781 5.80669922 -13.75851563 5.80089844 -12.92578125 5.79492188 C-6.93000121 5.57556407 -4.2190519 4.2804944 0 0 Z " fill="#7CC97F" transform="translate(190,94)"/>
<path d="M0 0 C3.5222421 4.1119753 6.13336622 8.47841153 8.75 13.1875 C9.36681641 14.27321289 9.36681641 14.27321289 9.99609375 15.38085938 C13 20.74497768 13 20.74497768 13 23 C11.5437328 23.36256858 10.08488815 23.71479793 8.625 24.0625 C7.81289063 24.25972656 7.00078125 24.45695312 6.1640625 24.66015625 C4 25 4 25 2 24 C-0.46423862 16.05967555 -0.19519713 8.23081229 0 0 Z " fill="#429DC8" transform="translate(16,4)"/>
<path d="M0 0 C0.33 0 0.66 0 1 0 C1.04125 1.175625 1.0825 2.35125 1.125 3.5625 C1.53908925 7.21285604 2.42297527 8.7346882 5.0625 11.25 C7.38390835 13.62654869 7.96466817 14.66924294 8.32421875 18.03515625 C8.27593421 20.16730007 8.17572582 22.29910864 8.015625 24.42578125 C8.01046875 25.27527344 8.0053125 26.12476563 8 27 C8.66 27.66 9.32 28.32 10 29 C10.25 32 10.25 32 10 35 C9.34 35.66 8.68 36.32 8 37 C2.43181818 36.43181818 2.43181818 36.43181818 1 35 C0.95919217 33.00041636 0.95745644 30.99954746 1 29 C1.99 28.67 2.98 28.34 4 28 C4.33805201 19.58602591 4.33805201 19.58602591 1.59765625 11.95703125 C-0.18848099 10.44657524 -0.18848099 10.44657524 -3 9 C-2.01 8.67 -1.02 8.34 0 8 C0 5.36 0 2.72 0 0 Z M4 31 C4 31.66 4 32.32 4 33 C4.99 33 5.98 33 7 33 C7 32.34 7 31.68 7 31 C6.01 31 5.02 31 4 31 Z " fill="#6B96C1" transform="translate(108,170)"/>
<path d="M0 0 C12.54 0 25.08 0 38 0 C32.375 5.625 32.375 5.625 29.66796875 7.23828125 C29.09755859 7.58310547 28.52714844 7.92792969 27.93945312 8.28320312 C27.07223633 8.79270508 27.07223633 8.79270508 26.1875 9.3125 C25.59001953 9.67150391 24.99253906 10.03050781 24.37695312 10.40039062 C22.92186044 11.27344624 21.46147271 12.13766691 20 13 C19.34 12.34 18.68 11.68 18 11 C18 9.1875 18 9.1875 19 7 C20.98 5.35 22.96 3.7 25 2 C16.75 2 8.5 2 0 2 C0 1.34 0 0.68 0 0 Z " fill="#9AD976" transform="translate(158,109)"/>
<path d="M0 0 C1.67739258 0.00966797 1.67739258 0.00966797 3.38867188 0.01953125 C5.13954102 0.04466797 5.13954102 0.04466797 6.92578125 0.0703125 C8.69405273 0.08384766 8.69405273 0.08384766 10.49804688 0.09765625 C13.41166151 0.12124827 16.32487017 0.1541671 19.23828125 0.1953125 C17.59459985 1.88465172 15.92399365 3.54791174 14.23828125 5.1953125 C13.6659375 5.84113281 13.09359375 6.48695312 12.50390625 7.15234375 C8.58531272 8.95624801 4.93866358 7.14508311 0.98828125 5.8828125 C0.1478125 5.63080078 -0.69265625 5.37878906 -1.55859375 5.11914062 C-3.63151161 4.49490968 -5.69737042 3.84732375 -7.76171875 3.1953125 C-7.76171875 4.1853125 -7.76171875 5.1753125 -7.76171875 6.1953125 C-8.75171875 6.1953125 -9.74171875 6.1953125 -10.76171875 6.1953125 C-8.41665016 0.78361575 -5.68761343 -0.05774227 0 0 Z " fill="#7EC96A" transform="translate(164.76171875,109.8046875)"/>
<path d="M0 0 C0.763125 0.45375 1.52625 0.9075 2.3125 1.375 C2.43753906 2.01050781 2.56257812 2.64601563 2.69140625 3.30078125 C3.13281388 5.53597217 3.13281388 5.53597217 5.203125 6.75390625 C5.98171875 7.14449219 6.7603125 7.53507812 7.5625 7.9375 C8.37332031 8.35773437 9.18414062 8.77796875 10.01953125 9.2109375 C10.77621094 9.59507813 11.53289063 9.97921875 12.3125 10.375 C15.03739617 11.94036588 17.09774544 13.16024544 19.3125 15.375 C19.3125 16.365 19.3125 17.355 19.3125 18.375 C15.34202389 16.93515702 12.00339104 15.00067928 8.4375 12.75 C3.58376831 9.85091149 0.85922542 8.77209506 -4.6875 9.375 C-6.6875 7.375 -6.6875 7.375 -6.8125 4.25 C-6.77125 3.30125 -6.73 2.3525 -6.6875 1.375 C-4.08385497 -0.36076335 -3.11173473 -0.72365924 0 0 Z M-3.6875 3.375 C-3.6875 4.365 -3.6875 5.355 -3.6875 6.375 C-2.6975 6.045 -1.7075 5.715 -0.6875 5.375 C-1.0175 4.715 -1.3475 4.055 -1.6875 3.375 C-2.3475 3.375 -3.0075 3.375 -3.6875 3.375 Z " fill="#78B3D0" transform="translate(6.6875,17.625)"/>
<path d="M0 0 C0.061875 0.61875 0.12375 1.2375 0.1875 1.875 C0.828919 4.27761141 0.828919 4.27761141 3.5625 5.25 C4.366875 5.4975 5.17125 5.745 6 6 C4.125 10.875 4.125 10.875 3 12 C0.46950598 12.07313567 -2.03304837 12.09247527 -4.5625 12.0625 C-5.62887695 12.05573242 -5.62887695 12.05573242 -6.71679688 12.04882812 C-8.47790013 12.03700864 -10.23896036 12.01907263 -12 12 C-10.48889209 8.0391665 -9.036109 5.036109 -6 2 C-3.25 1.6875 -3.25 1.6875 -1 2 C-0.67 1.34 -0.34 0.68 0 0 Z " fill="#75BE7F" transform="translate(180,87)"/>
<path d="M0 0 C5.80205656 5.64524422 5.80205656 5.64524422 8 9 C8 9.66 8 10.32 8 11 C-5.5470852 11.92017937 -5.5470852 11.92017937 -9.109375 9.6640625 C-10.4375 8 -10.4375 8 -12 5 C-11.01 4.67 -10.02 4.34 -9 4 C-7.43180374 3.32559435 -5.86962901 2.6370797 -4.3125 1.9375 C-3.50425781 1.57527344 -2.69601563 1.21304688 -1.86328125 0.83984375 C-1.24839844 0.56269531 -0.63351563 0.28554687 0 0 Z " fill="#66D0DE" transform="translate(80,88)"/>
<path d="M0 0 C3.88609811 1.75066796 7.27812258 4.18324006 10.75 6.625 C11.35199219 7.04523438 11.95398438 7.46546875 12.57421875 7.8984375 C14.05113043 8.92993137 15.52579194 9.96464579 17 11 C16.67 13.31 16.34 15.62 16 18 C12 18 12 18 10.55200195 16.77832031 C10.11847412 16.21725586 9.68494629 15.65619141 9.23828125 15.078125 C8.75939453 14.46453125 8.28050781 13.8509375 7.78710938 13.21875 C7.05717773 12.24421875 7.05717773 12.24421875 6.3125 11.25 C5.81427734 10.61578125 5.31605469 9.9815625 4.80273438 9.328125 C2.41732747 6.2209464 0.76982475 3.89873822 0 0 Z " fill="#3B89BA" transform="translate(89,91)"/>
<path d="M0 0 C0.66 0 1.32 0 2 0 C2 7.26 2 14.52 2 22 C3.32 22.66 4.64 23.32 6 24 C6.125 26.375 6.125 26.375 6 29 C4 31 4 31 1.5 31.25 C-1 31 -1 31 -3 29 C-3.125 25.875 -3.125 25.875 -3 23 C-2.01 22.67 -1.02 22.34 0 22 C0 14.74 0 7.48 0 0 Z M0 25 C0 25.66 0 26.32 0 27 C0.99 26.67 1.98 26.34 3 26 C2.01 25.67 1.02 25.34 0 25 Z " fill="#3F76A3" transform="translate(79,158)"/>
<path d="M0 0 C0.33 0 0.66 0 1 0 C1 7.59 1 15.18 1 23 C1.66 23 2.32 23 3 23 C3 15.41 3 7.82 3 0 C3.33 0 3.66 0 4 0 C4.01981934 0.62567871 4.03963867 1.25135742 4.06005859 1.89599609 C4.15514226 4.72276519 4.26488746 7.54877815 4.375 10.375 C4.4059375 11.35984375 4.436875 12.3446875 4.46875 13.359375 C4.50742188 14.30039063 4.54609375 15.24140625 4.5859375 16.2109375 C4.6173584 17.08024902 4.6487793 17.94956055 4.68115234 18.84521484 C4.81229433 21.20961794 4.81229433 21.20961794 7 23 C6.625 26.125 6.625 26.125 6 29 C0.56559513 30.32841008 0.56559513 30.32841008 -1.9375 28.875 C-3 27 -3 27 -2.75 24.375 C-2 22 -2 22 -1 21 C-0.84313751 19.44051458 -0.74923361 17.87457332 -0.68359375 16.30859375 C-0.64169922 15.36435547 -0.59980469 14.42011719 -0.55664062 13.44726562 C-0.49766602 11.95743164 -0.49766602 11.95743164 -0.4375 10.4375 C-0.39431641 9.44041016 -0.35113281 8.44332031 -0.30664062 7.41601562 C-0.20019702 4.9441585 -0.09818072 2.4721969 0 0 Z M1 24 C1 24.66 1 25.32 1 26 C1.66 26 2.32 26 3 26 C3 25.34 3 24.68 3 24 C2.34 24 1.68 24 1 24 Z " fill="#C4E3B7" transform="translate(175,159)"/>
<path d="M0 0 C1.55723043 3.98976686 0.4691898 7.52007304 -0.5625 11.5 C-0.70751953 12.16386719 -0.85253906 12.82773438 -1.00195312 13.51171875 C-1.99729234 17.3923798 -2.8285035 18.87338312 -6.08984375 21.28125 C-7.53037109 22.13203125 -7.53037109 22.13203125 -9 23 C-9.33 23.99 -9.66 24.98 -10 26 C-10.66 26 -11.32 26 -12 26 C-10.26897304 20.42224647 -8.2598553 15.00980055 -6 9.625 C-5.505 8.44164062 -5.01 7.25828125 -4.5 6.0390625 C-3.20076898 3.40676632 -2.22825532 1.84361601 0 0 Z " fill="#68AE82" transform="translate(120,135)"/>
<path d="M0 0 C0.99 0.33 1.98 0.66 3 1 C1.59983383 5.04735532 -0.3181237 7.98480422 -3 11.3125 C-3.70125 12.19550781 -4.4025 13.07851562 -5.125 13.98828125 C-5.74375 14.65214844 -6.3625 15.31601563 -7 16 C-7.66 16 -8.32 16 -9 16 C-10.45670315 13.68641264 -11.02036845 12.35790277 -10.86328125 9.59765625 C-9.71575486 6.14469224 -8.11246841 5.14262359 -5.125 3.125 C-4.24070313 2.50882812 -3.35640625 1.89265625 -2.4453125 1.2578125 C-1.63835937 0.84273438 -0.83140625 0.42765625 0 0 Z " fill="#427DB0" transform="translate(161,94)"/>
<path d="M0 0 C1.36176922 1.64351457 2.68962066 3.31522656 4 5 C4.928125 6.1446875 4.928125 6.1446875 5.875 7.3125 C7.57303235 11.36891062 6.32842813 13.87488108 5 18 C1.41374759 16.58814905 0.21602361 15.19897315 -1.3125 11.6875 C-2.49542954 8.80207971 -3.00900818 7.21169212 -2.875 4.0625 C-2 2 -2 2 0 0 Z " fill="#5DAB5F" transform="translate(154,151)"/>
<path d="M0 0 C0.33 0 0.66 0 1 0 C1.02721176 1.89575251 1.04649136 3.79161979 1.0625 5.6875 C1.07410156 6.74324219 1.08570312 7.79898438 1.09765625 8.88671875 C1.00865425 11.72410262 0.64939838 14.2438919 0 17 C-2.27029534 16.60856977 -3.83408198 16.11258722 -5.75 14.8125 C-7.61326 12.11077301 -7.392614 10.20634765 -7 7 C-5.22015595 3.8640843 -4.47691793 3.15897264 -1 2 C-0.67 1.34 -0.34 0.68 0 0 Z " fill="#91D57C" transform="translate(117,164)"/>
<path d="M0 0 C1.32 0 2.64 0 4 0 C4.95899351 2.70810117 5.91721447 5.41647161 6.875 8.125 C7.14441406 8.88554688 7.41382813 9.64609375 7.69140625 10.4296875 C9.16791649 14.60713111 10.61494964 18.79106057 12 23 C10.68 23.33 9.36 23.66 8 24 C6.65185336 20.94381251 5.32417971 17.87913915 4 14.8125 C3.6184375 13.94818359 3.236875 13.08386719 2.84375 12.19335938 C2.4828125 11.35224609 2.121875 10.51113281 1.75 9.64453125 C1.41484375 8.87471924 1.0796875 8.10490723 0.734375 7.31176758 C-0.07639687 4.75950734 -0.1317489 2.66173943 0 0 Z " fill="#76BE93" transform="translate(125,84)"/>
<path d="M0 0 C0.66 0 1.32 0 2 0 C2.07347656 1.37285156 2.07347656 1.37285156 2.1484375 2.7734375 C2.22320312 3.96195313 2.29796875 5.15046875 2.375 6.375 C2.47941406 8.15003906 2.47941406 8.15003906 2.5859375 9.9609375 C2.70217346 13.10562319 2.70217346 13.10562319 5 15 C5.3125 18 5.3125 18 5 21 C2 23 2 23 -0.6875 22.625 C-1.8321875 22.315625 -1.8321875 22.315625 -3 22 C-4.125 16.25 -4.125 16.25 -3 14 C-2.01 14 -1.02 14 0 14 C0 9.38 0 4.76 0 0 Z M-1 17 C-1 17.66 -1 18.32 -1 19 C-0.01 19 0.98 19 2 19 C2 18.34 2 17.68 2 17 C1.01 17 0.02 17 -1 17 Z " fill="#A8D98F" transform="translate(143,184)"/>
<path d="M0 0 C3 1 3 1 4.82421875 4.52734375 C5.45639586 5.99266374 6.07705247 7.46299521 6.6875 8.9375 C7.00783203 9.67935547 7.32816406 10.42121094 7.65820312 11.18554688 C10 16.69301373 10 16.69301373 10 19 C9.34 19 8.68 19 8 19 C8 19.99 8 20.98 8 22 C7.01 22 6.02 22 5 22 C4.32713788 19.58490559 3.66153988 17.16819644 3 14.75 C2.71382812 13.72712891 2.71382812 13.72712891 2.421875 12.68359375 C1.50042956 9.29399088 1 6.54221024 1 3 C0.34 2.67 -0.32 2.34 -1 2 C-0.67 1.34 -0.34 0.68 0 0 Z " fill="#9FDA85" transform="translate(135,133)"/>
<path d="M0 0 C4.95 0 9.9 0 15 0 C14.01 0.495 14.01 0.495 13 1 C12.30662208 4.0399648 12.30662208 4.0399648 11.875 7.5625 C11.70742187 8.76003906 11.53984375 9.95757812 11.3671875 11.19140625 C11.24601562 12.11824219 11.12484375 13.04507813 11 14 C10.34 13.67 9.68 13.34 9 13 C8.6596875 11.63875 8.6596875 11.63875 8.3125 10.25 C6.72322406 6.31465005 4.98112262 5.23334038 1.4609375 3.078125 C0.97882813 2.72234375 0.49671875 2.3665625 0 2 C0 1.34 0 0.68 0 0 Z " fill="#68AEC8" transform="translate(109,48)"/>
<path d="M0 0 C0.99 0 1.98 0 3 0 C3.99 4.95 4.98 9.9 6 15 C5.01 15 4.02 15 3 15 C3 17.31 3 19.62 3 22 C2.67 22 2.34 22 2 22 C1.49265716 19.6263603 0.99397614 17.25142575 0.5 14.875 C0.35691406 14.20984375 0.21382812 13.5446875 0.06640625 12.859375 C-0.7599372 8.8457068 -1.24905574 5.09696693 -1 1 C-0.67 0.67 -0.34 0.34 0 0 Z " fill="#6EB386" transform="translate(133,136)"/>
<path d="M0 0 C4.48993869 0.58652352 8.22543184 1.7643538 12.375 3.5625 C13.43460938 4.01753906 14.49421875 4.47257812 15.5859375 4.94140625 C16.38257812 5.29074219 17.17921875 5.64007813 18 6 C17.67 7.65 17.34 9.3 17 11 C12.91926294 10.34344577 9.70012441 8.20461021 6.25 6.0625 C5.64800781 5.70220703 5.04601562 5.34191406 4.42578125 4.97070312 C2.91274606 4.03920867 1.45105131 3.02538164 0 2 C0 1.34 0 0.68 0 0 Z " fill="#4D7EA9" transform="translate(62,110)"/>
<path d="M0 0 C5.23147649 -0.6036319 8.49288048 0.36168614 13 3 C10.14523689 5.85476311 6.90183062 7.05737953 3 8 C0.5625 7.375 0.5625 7.375 -1 6 C-1.33 5.01 -1.66 4.02 -2 3 C-1.34 2.01 -0.68 1.02 0 0 Z " fill="#53BED6" transform="translate(67,85)"/>
<path d="M0 0 C0.8971875 0.9590625 0.8971875 0.9590625 1.8125 1.9375 C3.90810337 4.20310389 3.90810337 4.20310389 7 5 C7 5.99 7 6.98 7 8 C1.39 8 -4.22 8 -10 8 C-6.72724974 4.72724974 -3.85411644 2.45261955 0 0 Z " fill="#65C5BD" transform="translate(131,56)"/>
<path d="M0 0 C2.34191563 2.1290142 3.83554954 4.04408729 5 7 C5 8.32 5 9.64 5 11 C2.03 11 -0.94 11 -4 11 C-3.39301257 6.87248551 -1.96189209 3.6678852 0 0 Z " fill="#93CAA5" transform="translate(122,90)"/>
<path d="M0 0 C2.75105422 -0.10812003 5.49785087 -0.18734945 8.25 -0.25 C9.02730469 -0.28351563 9.80460937 -0.31703125 10.60546875 -0.3515625 C16.41212858 -0.45082164 16.41212858 -0.45082164 19.546875 1.953125 C21 4 21 4 21 5 C14.73 5 8.46 5 2 5 C2 4.67 2 4.34 2 4 C4.64 4 7.28 4 10 4 C10 3.34 10 2.68 10 2 C6.7 1.67 3.4 1.34 0 1 C0 0.67 0 0.34 0 0 Z " fill="#7ECCDD" transform="translate(72,100)"/>
<path d="M0 0 C12.54 0 25.08 0 38 0 C33 5 33 5 30 6 C30 4.68 30 3.36 30 2 C20.1 2 10.2 2 0 2 C0 1.34 0 0.68 0 0 Z " fill="#A5DD91" transform="translate(158,109)"/>
<path d="M0 0 C6.6 0 13.2 0 20 0 C19.67 0.99 19.34 1.98 19 3 C12.73 3 6.46 3 0 3 C0 2.01 0 1.02 0 0 Z " fill="#65B86A" transform="translate(165,101)"/>
<path d="M0 0 C3 1 3 1 4.203125 2.9609375 C4.54859375 3.75757812 4.8940625 4.55421875 5.25 5.375 C5.60578125 6.16648437 5.9615625 6.95796875 6.328125 7.7734375 C7 10 7 10 6 13 C4.02 13 2.04 13 0 13 C0.66 12.67 1.32 12.34 2 12 C1.67 11.319375 1.34 10.63875 1 9.9375 C-0.17307315 6.49159762 -0.14180493 3.61602578 0 0 Z " fill="#AADD9B" transform="translate(140,109)"/>
<path d="M0 0 C-0.42047982 2.83823882 -0.91332541 3.9146797 -3 5.96875 C-5.94075237 10.42582782 -5.67268732 14.57983709 -5.75 19.8125 C-5.77964844 20.79154297 -5.80929688 21.77058594 -5.83984375 22.77929688 C-5.91029202 25.18627953 -5.96311025 27.5923079 -6 30 C-6.33 30 -6.66 30 -7 30 C-7 22.74 -7 15.48 -7 8 C-7.66 7.67 -8.32 7.34 -9 7 C-8.07347299 5.82460004 -7.13336613 4.65989423 -6.1875 3.5 C-5.66542969 2.8503125 -5.14335938 2.200625 -4.60546875 1.53125 C-3 0 -3 0 0 0 Z " fill="#739DBE" transform="translate(88,150)"/>
<path d="M0 0 C4.95 0 9.9 0 15 0 C17 5 17 5 17 8 C13.04 8 9.08 8 5 8 C5 7.67 5 7.34 5 7 C7.64 6.67 10.28 6.34 13 6 C11.68 5.01 10.36 4.02 9 3 C9.33 2.67 9.66 2.34 10 2 C6.7 2 3.4 2 0 2 C0 1.34 0 0.68 0 0 Z " fill="#AFE0AF" transform="translate(115,105)"/>
<path d="M0 0 C4.40958108 0.66607439 8.26572186 2.26624729 12.3125 4.0625 C13.28026367 4.48499023 13.28026367 4.48499023 14.26757812 4.91601562 C15.84698358 5.6062743 17.42376493 6.30253198 19 7 C18.01 7.99 17.02 8.98 16 10 C11.02790438 8.23570801 6.56561939 5.6060834 2 3 C2 2.34 2 1.68 2 1 C1.34 0.67 0.68 0.34 0 0 Z " fill="#71C8DC" transform="translate(40,59)"/>
<path d="M0 0 C0.66 0 1.32 0 2 0 C2 3.3 2 6.6 2 10 C2.66 10.33 3.32 10.66 4 11 C1.03 13.475 1.03 13.475 -2 16 C-2.66 15.67 -3.32 15.34 -4 15 C-4 19.62 -4 24.24 -4 29 C-4.66 28.67 -5.32 28.34 -6 28 C-5.80475775 14.8832707 -5.80475775 14.8832707 -2.4375 11.1875 C-1.633125 10.465625 -0.82875 9.74375 0 9 C0.43772154 5.95679309 0.29926664 3.05251974 0 0 Z " fill="#BDE4A7" transform="translate(147,169)"/>
<path d="M0 0 C0.99 0.33 1.98 0.66 3 1 C3 1.66 3 2.32 3 3 C3.99 3.33 4.98 3.66 6 4 C6.390625 9.95703125 6.390625 9.95703125 6 12 C4.68 12.99 3.36 13.98 2 15 C1.34 10.05 0.68 5.1 0 0 Z " fill="#A8DB90" transform="translate(141,166)"/>
<path d="M0 0 C0.99 0 1.98 0 3 0 C3.33 1.65 3.66 3.3 4 5 C4.99 4.67 5.98 4.34 7 4 C6.34 7.96 5.68 11.92 5 16 C4.67 16 4.34 16 4 16 C3.67 14.35 3.34 12.7 3 11 C2.01 11.495 2.01 11.495 1 12 C-0.26237731 9.47524538 -0.09856404 7.68799534 -0.0625 4.875 C-0.05347656 3.96492187 -0.04445313 3.05484375 -0.03515625 2.1171875 C-0.02355469 1.41851562 -0.01195313 0.71984375 0 0 Z M1 1 C1 3.97 1 6.94 1 10 C1.33 10 1.66 10 2 10 C2 7.03 2 4.06 2 1 C1.67 1 1.34 1 1 1 Z " fill="#BFE3B4" transform="translate(114,155)"/>
<path d="M0 0 C0.125 2.375 0.125 2.375 0 5 C-2 7 -2 7 -4.625 7.125 C-5.40875 7.08375 -6.1925 7.0425 -7 7 C-7.66 5.68 -8.32 4.36 -9 3 C-8.34 3 -7.68 3 -7 3 C-6.67 2.01 -6.34 1.02 -6 0 C-3 -1 -3 -1 0 0 Z M-6 1 C-6 1.66 -6 2.32 -6 3 C-5.01 2.67 -4.02 2.34 -3 2 C-3.99 1.67 -4.98 1.34 -6 1 Z " fill="#8CAFC9" transform="translate(85,182)"/>
<path d="M0 0 C0.66 0 1.32 0 2 0 C3.26237731 2.52475462 3.09856404 4.31200466 3.0625 7.125 C3.05347656 8.03507813 3.04445313 8.94515625 3.03515625 9.8828125 C3.02355469 10.58148438 3.01195313 11.28015625 3 12 C1.02 12.99 1.02 12.99 -1 14 C-2.12029814 8.51053913 -1.79217969 5.16569441 0 0 Z " fill="#88D074" transform="translate(118,147)"/>
<path d="M0 0 C1.45606519 4.52092968 0.27032841 7.51648796 -1 12 C-2.32 11.67 -3.64 11.34 -5 11 C-5.33 11.99 -5.66 12.98 -6 14 C-6.33 13.34 -6.66 12.68 -7 12 C-6.07421875 9.6875 -6.07421875 9.6875 -4.6875 7 C-4.23761719 6.113125 -3.78773437 5.22625 -3.32421875 4.3125 C-2 2 -2 2 0 0 Z " fill="#72B38D" transform="translate(120,135)"/>
<path d="M0 0 C1.98 0 3.96 0 6 0 C6.33 2.31 6.66 4.62 7 7 C4.6875 7.6875 4.6875 7.6875 2 8 C0.125 6.875 0.125 6.875 -1 5 C-0.6875 2.3125 -0.6875 2.3125 0 0 Z " fill="#BAD4E2" transform="translate(47,85)"/>
<path d="M0 0 C3.11198065 1.49836105 6.0534615 3.19933758 9 5 C8.67 6.65 8.34 8.3 8 10 C8.66 10.33 9.32 10.66 10 11 C9.67 11.99 9.34 12.98 9 14 C7.67925885 12.42353449 6.36868776 10.83854469 5.0625 9.25 C4.33160156 8.36828125 3.60070312 7.4865625 2.84765625 6.578125 C1.16962815 4.23669045 0.41264834 2.80338873 0 0 Z " fill="#649EC3" transform="translate(89,91)"/>
<path d="M0 0 C3.96 1.98 7.92 3.96 12 6 C12 6.33 12 6.66 12 7 C5.56318772 6.48914188 0.04057576 5.27057103 -6 3 C-5.38125 2.87625 -4.7625 2.7525 -4.125 2.625 C-1.80879168 2.12802644 -1.80879168 2.12802644 0 0 Z " fill="#5EA6C9" transform="translate(62,73)"/>
<path d="M0 0 C-3.16240582 2.10827055 -4.50657469 2.33817465 -8.1875 2.625 C-9.53908203 2.73714844 -9.53908203 2.73714844 -10.91796875 2.8515625 C-11.60503906 2.90054688 -12.29210937 2.94953125 -13 3 C-13.33 3.99 -13.66 4.98 -14 6 C-15.84765625 6.73046875 -15.84765625 6.73046875 -18.0625 7.1875 C-18.79597656 7.34605469 -19.52945313 7.50460938 -20.28515625 7.66796875 C-20.85105469 7.77753906 -21.41695312 7.88710937 -22 8 C-22.33 7.34 -22.66 6.68 -23 6 C-20.48773942 4.79061646 -17.96784793 3.60792526 -15.4375 2.4375 C-14.73302734 2.09525391 -14.02855469 1.75300781 -13.30273438 1.40039062 C-8.3434045 -0.86216079 -5.31857303 -1.27897354 0 0 Z " fill="#A1D9A1" transform="translate(220,60)"/>
<path d="M0 0 C0.33 0 0.66 0 1 0 C1.04125 1.175625 1.0825 2.35125 1.125 3.5625 C1.71722936 8.67389492 4.42469929 11.50123478 8 15 C2.96014269 14.55530671 0.62365012 12.28656638 -3 9 C-2.01 8.67 -1.02 8.34 0 8 C0 5.36 0 2.72 0 0 Z " fill="#A1D09F" transform="translate(108,170)"/>
<path d="M0 0 C2.64 0 5.28 0 8 0 C7.33501617 4.38889325 5.81242323 7.9811485 4 12 C3.67 12 3.34 12 3 12 C1.875 4.25 1.875 4.25 3 2 C2.01 1.34 1.02 0.68 0 0 Z " fill="#9DD5A2" transform="translate(108,132)"/>
<path d="M0 0 C4.95 0 9.9 0 15 0 C14.01 0.495 14.01 0.495 13 1 C12.53476937 2.89533342 12.53476937 2.89533342 12.375 5.0625 C12.25125 6.361875 12.1275 7.66125 12 9 C11.67 9 11.34 9 11 9 C11 7.35 11 5.7 11 4 C9.5422647 3.664061 8.08378894 3.33133376 6.625 3 C5.81289062 2.814375 5.00078125 2.62875 4.1640625 2.4375 C2.04125049 1.93394761 2.04125049 1.93394761 0 2 C0 1.34 0 0.68 0 0 Z " fill="#67C6D4" transform="translate(109,48)"/>
<path d="M0 0 C5.28497409 -0.44041451 5.28497409 -0.44041451 8 0 C10.5 2.5 10.5 2.5 12 5 C11.67 5.66 11.34 6.32 11 7 C7 7 7 7 5.25 5.6875 C4 4 4 4 4 1 C3.01 1 2.02 1 1 1 C0.67 1.99 0.34 2.98 0 4 C0 2.68 0 1.36 0 0 Z " fill="#A2D896" transform="translate(141,132)"/>
<path d="M0 0 C0.66 0 1.32 0 2 0 C2.67057887 1.7902061 3.3363469 3.58221489 4 5.375 C4.556875 6.87160156 4.556875 6.87160156 5.125 8.3984375 C6 11 6 11 6 13 C5.01 13 4.02 13 3 13 C0.78145293 8.37802694 -0.38281159 5.23175837 0 0 Z " fill="#6BB885" transform="translate(136,108)"/>
<path d="M0 0 C1.32 0 2.64 0 4 0 C4.66 0.66 5.32 1.32 6 2 C6.99 2.33 7.98 2.66 9 3 C9.33 4.65 9.66 6.3 10 8 C6.2089881 6.55049545 2.6125362 4.84827434 -1 3 C-0.67 2.01 -0.34 1.02 0 0 Z " fill="#6FB0CC" transform="translate(16,28)"/>
<path d="M0 0 C0.66 0 1.32 0 2 0 C2.06058594 0.79664063 2.12117188 1.59328125 2.18359375 2.4140625 C2.79667866 10.24332697 2.79667866 10.24332697 4 18 C1.48828125 16.453125 1.48828125 16.453125 -1 14 C-1.26953125 10.546875 -1.26953125 10.546875 -0.8125 6.75 C-0.67457031 5.48671875 -0.53664063 4.2234375 -0.39453125 2.921875 C-0.26433594 1.95765625 -0.13414063 0.9934375 0 0 Z " fill="#4482AE" transform="translate(113,185)"/>
<path d="M0 0 C3.0916909 2.52956528 3.90931332 5.22454612 5 9 C4.34 9 3.68 9 3 9 C2.67 10.32 2.34 11.64 2 13 C1.67 10.69 1.34 8.38 1 6 C0.01 6 -0.98 6 -2 6 C-1.34 4.02 -0.68 2.04 0 0 Z " fill="#95D88F" transform="translate(128,78)"/>
<path d="M0 0 C0.66 0.33 1.32 0.66 2 1 C0.75482035 2.13033298 -0.49636652 3.25405036 -1.75 4.375 C-2.44609375 5.00148438 -3.1421875 5.62796875 -3.859375 6.2734375 C-5.89847966 7.91811681 -7.53640611 9.11737384 -10 10 C-11.3438066 9.71177665 -12.68009179 9.38305509 -14 9 C-11.71439353 7.4693001 -9.42237333 5.95034956 -7.125 4.4375 C-6.14853516 3.78104492 -6.14853516 3.78104492 -5.15234375 3.11132812 C-3.47374503 2.01245164 -1.73976613 0.9992182 0 0 Z " fill="#A6DCB5" transform="translate(174,40)"/>
<path d="M0 0 C0.99 0.33 1.98 0.66 3 1 C-1.14285714 7.42857143 -1.14285714 7.42857143 -4 10 C-4 9.34 -4 8.68 -4 8 C-4.66 7.67 -5.32 7.34 -6 7 C-4.02 4.69 -2.04 2.38 0 0 Z " fill="#7EACC7" transform="translate(100,132)"/>
<path d="M0 0 C1.98 0.66 3.96 1.32 6 2 C5.67 3.65 5.34 5.3 5 7 C1.73045798 6.43628586 0.17424117 5.50037734 -2 3 C-1.34 2.01 -0.68 1.02 0 0 Z " fill="#3974A8" transform="translate(74,114)"/>
<path d="M0 0 C3 0.875 3 0.875 7 3.875 C2.38 4.205 -2.24 4.535 -7 4.875 C-7 2.875 -7 2.875 -5.375 1.1875 C-3 -0.125 -3 -0.125 0 0 Z " fill="#72C579" transform="translate(124,108.125)"/>
<path d="M0 0 C0.33 0 0.66 0 1 0 C0.67 2.31 0.34 4.62 0 7 C-2.375 7.125 -2.375 7.125 -5 7 C-5.66 6.34 -6.32 5.68 -7 5 C-7 3.68 -7 2.36 -7 1 C-6.34 1 -5.68 1 -5 1 C-5 1.99 -5 2.98 -5 4 C-1.72226496 3.24849977 -1.72226496 3.24849977 0 0 Z " fill="#559AC3" transform="translate(7,20)"/>
<path d="M0 0 C0.33 0 0.66 0 1 0 C0.97679688 0.98742187 0.95359375 1.97484375 0.9296875 2.9921875 C0.91164063 4.27351562 0.89359375 5.55484375 0.875 6.875 C0.85179688 8.15117187 0.82859375 9.42734375 0.8046875 10.7421875 C0.64358476 14.08593338 0.64358476 14.08593338 3 16 C2.01 16 1.02 16 0 16 C-0.66 17.32 -1.32 18.64 -2 20 C-2.33 20 -2.66 20 -3 20 C-3 18.02 -3 16.04 -3 14 C-2.01 13.67 -1.02 13.34 0 13 C0 8.71 0 4.42 0 0 Z " fill="#90B2CB" transform="translate(112,185)"/>
<path d="M0 0 C4.20626034 1.50223584 5.73900021 4.28550034 8 8 C6.68 8.33 5.36 8.66 4 9 C0 3.375 0 3.375 0 0 Z " fill="#9ED68A" transform="translate(170,150)"/>
<path d="M0 0 C1.2065625 0.0309375 1.2065625 0.0309375 2.4375 0.0625 C2.4375 2.0425 2.4375 4.0225 2.4375 6.0625 C0.4575 6.3925 -1.5225 6.7225 -3.5625 7.0625 C-3.60504356 5.06295254 -3.60330783 3.06208364 -3.5625 1.0625 C-2.5625 0.0625 -2.5625 0.0625 0 0 Z " fill="#A5D6E1" transform="translate(37.5625,52.9375)"/>
<path d="M0 0 C1.10844919 3.32534757 0.84454356 5.62182575 0 9 C-1.875 8.6875 -1.875 8.6875 -4 8 C-4.66 7.01 -5.32 6.02 -6 5 C-5.34 5 -4.68 5 -4 5 C-4 4.34 -4 3.68 -4 3 C-2.68 3 -1.36 3 0 3 C0 2.01 0 1.02 0 0 Z " fill="#A5D893" transform="translate(117,172)"/>
<path d="M0 0 C0.66 0 1.32 0 2 0 C2 4.95 2 9.9 2 15 C1.01 15.33 0.02 15.66 -1 16 C-0.67 10.72 -0.34 5.44 0 0 Z " fill="#90CF6D" transform="translate(143,184)"/>
<path d="M0 0 C1.32 0 2.64 0 4 0 C4 2.64 4 5.28 4 8 C3.01 8 2.02 8 1 8 C0.67 5.36 0.34 2.72 0 0 Z " fill="#7CB976" transform="translate(139,173)"/>
<path d="M0 0 C1.43655854 -0.08131463 2.8744483 -0.13933559 4.3125 -0.1875 C5.51326172 -0.23970703 5.51326172 -0.23970703 6.73828125 -0.29296875 C9.47851584 0.06198392 10.29171079 0.89366282 12 3 C11.34 3.66 10.68 4.32 10 5 C5.05 3.02 5.05 3.02 0 1 C0 0.67 0 0.34 0 0 Z " fill="#87D1DF" transform="translate(62,66)"/>
<path d="M0 0 C2.02350324 3.03525486 2.32124018 4.19426202 2.625 7.6875 C2.69976562 8.49574219 2.77453125 9.30398437 2.8515625 10.13671875 C2.90054688 10.75160156 2.94953125 11.36648437 3 12 C2.01 11.67 1.02 11.34 0 11 C-0.19406478 9.35492782 -0.38007935 7.70890406 -0.5625 6.0625 C-0.66691406 5.14597656 -0.77132812 4.22945312 -0.87890625 3.28515625 C-0.91886719 2.53105469 -0.95882812 1.77695313 -1 1 C-0.67 0.67 -0.34 0.34 0 0 Z " fill="#B1DEA4" transform="translate(128,143)"/>
<path d="M0 0 C2.1640625 -0.29296875 2.1640625 -0.29296875 4.625 -0.1875 C5.44226563 -0.16042969 6.25953125 -0.13335937 7.1015625 -0.10546875 C8.04128906 -0.05326172 8.04128906 -0.05326172 9 0 C8.01 0.495 8.01 0.495 7 1 C7 1.66 7 2.32 7 3 C4.03 3 1.06 3 -2 3 C-1.34 2.01 -0.68 1.02 0 0 Z " fill="#3DB2CE" transform="translate(75,101)"/>
<path d="M0 0 C0.33 0.66 0.66 1.32 1 2 C2.65 2 4.3 2 6 2 C6 2.99 6 3.98 6 5 C1.25 6.125 1.25 6.125 -1 5 C-0.67 3.35 -0.34 1.7 0 0 Z " fill="#B0DE99" transform="translate(141,201)"/>
<path d="M0 0 C0.66 0 1.32 0 2 0 C2 3.3 2 6.6 2 10 C1.01 10 0.02 10 -1 10 C-0.67 6.7 -0.34 3.4 0 0 Z " fill="#7EBA82" transform="translate(126,148)"/>
<path d="M0 0 C0.99 0 1.98 0 3 0 C4.54779543 2.26216255 5.77612283 4.55224566 7 7 C5.35 7.33 3.7 7.66 2 8 C1.34 5.36 0.68 2.72 0 0 Z " fill="#63A9CB" transform="translate(17,34)"/>
<path d="M0 0 C0.99 0 1.98 0 3 0 C3 2.64 3 5.28 3 8 C2.01 8 1.02 8 0 8 C0 5.36 0 2.72 0 0 Z " fill="#4E9F5B" transform="translate(136,151)"/>
<path d="M0 0 C2.64 0 5.28 0 8 0 C8 0.99 8 1.98 8 3 C5.36 3 2.72 3 0 3 C0 2.01 0 1.02 0 0 Z " fill="#5EB164" transform="translate(165,101)"/>
<path d="M0 0 C1.62418745 -0.08090971 3.24951745 -0.13914995 4.875 -0.1875 C5.77992187 -0.22230469 6.68484375 -0.25710937 7.6171875 -0.29296875 C8.79667969 -0.14794922 8.79667969 -0.14794922 10 0 C10.66 0.99 11.32 1.98 12 3 C10.56163249 2.88541307 9.12429034 2.75790884 7.6875 2.625 C6.88699219 2.55539063 6.08648437 2.48578125 5.26171875 2.4140625 C3 2 3 2 0 0 Z " fill="#87CADE" transform="translate(54,89)"/>
<path d="M0 0 C0.66 0.33 1.32 0.66 2 1 C1.67 2.65 1.34 4.3 1 6 C-0.32 5.67 -1.64 5.34 -3 5 C-2.625 3.0625 -2.625 3.0625 -2 1 C-1.34 0.67 -0.68 0.34 0 0 Z " fill="#C7E8B9" transform="translate(219,53)"/>
<path d="M0 0 C0.66 0 1.32 0 2 0 C1.52797514 4.24822374 -0.96655518 6.19989709 -4 9 C-4 7.68 -4 6.36 -4 5 C-3.34 5 -2.68 5 -2 5 C-1.7834375 4.0409375 -1.7834375 4.0409375 -1.5625 3.0625 C-1 1 -1 1 0 0 Z " fill="#4C9F5F" transform="translate(112,156)"/>
<path d="M0 0 C-3.20380017 2.13586678 -4.01939967 2.23132175 -7.6875 2.125 C-8.89986328 2.09792969 -8.89986328 2.09792969 -10.13671875 2.0703125 C-11.05904297 2.03550781 -11.05904297 2.03550781 -12 2 C-7.30614786 -1.12923476 -5.57971023 -0.92995171 0 0 Z " fill="#B5E3AB" transform="translate(220,60)"/>
<path d="M0 0 C-0.33 1.98 -0.66 3.96 -1 6 C-1.66 5.67 -2.32 5.34 -3 5 C-2.67 4.34 -2.34 3.68 -2 3 C-2.99 2.67 -3.98 2.34 -5 2 C-5.66 1.34 -6.32 0.68 -7 0 C-4.3333581 -1.33332095 -2.83319697 -0.67102033 0 0 Z " fill="#C3E6B0" transform="translate(255,18)"/>
<path d="M0 0 C0.99 0.66 1.98 1.32 3 2 C2.0409375 2.433125 2.0409375 2.433125 1.0625 2.875 C-1.15206079 3.82823451 -1.15206079 3.82823451 -2 6 C-2.66 6 -3.32 6 -4 6 C-3.67 4.35 -3.34 2.7 -3 1 C-2.01 0.67 -1.02 0.34 0 0 Z " fill="#457FAE" transform="translate(80,179)"/>
<path d="M0 0 C0.66 0 1.32 0 2 0 C2 2.31 2 4.62 2 7 C1.01 7 0.02 7 -1 7 C-1.04254356 5.00045254 -1.04080783 2.99958364 -1 1 C-0.67 0.67 -0.34 0.34 0 0 Z " fill="#79B97A" transform="translate(111,170)"/>
<path d="M0 0 C-0.33 1.65 -0.66 3.3 -1 5 C-4.875 3.25 -4.875 3.25 -6 1 C-3 0 -3 0 0 0 Z " fill="#6FA3C5" transform="translate(105,105)"/>
<path d="M0 0 C0.66 0.33 1.32 0.66 2 1 C2.6328125 3.06640625 2.6328125 3.06640625 3.125 5.5625 C3.29257813 6.38878906 3.46015625 7.21507813 3.6328125 8.06640625 C3.75398438 8.70449219 3.87515625 9.34257813 4 10 C3.01 10 2.02 10 1 10 C0.63883954 8.5225254 0.28624952 7.04295325 -0.0625 5.5625 C-0.25972656 4.73878906 -0.45695312 3.91507812 -0.66015625 3.06640625 C-0.82837891 2.04353516 -0.82837891 2.04353516 -1 1 C-0.67 0.67 -0.34 0.34 0 0 Z " fill="#97D398" transform="translate(122,90)"/>
<path d="M0 0 C2.88437779 1.29299694 4.87219421 2.65941363 7 5 C5.68 5.33 4.36 5.66 3 6 C0 1.125 0 1.125 0 0 Z " fill="#4590BB" transform="translate(89,91)"/>
<path d="M0 0 C2.475 0.495 2.475 0.495 5 1 C4.01 2.485 4.01 2.485 3 4 C2.60986284 5.9896995 2.26797351 7.99019869 2 10 C1.67 10 1.34 10 1 10 C0.67 6.7 0.34 3.4 0 0 Z " fill="#8FCDE1" transform="translate(14,1)"/>
<path d="M0 0 C-0.54723683 3.37462715 -1.0549 5.08235 -3 8 C-3.33 5.69 -3.66 3.38 -4 1 C-2 0 -2 0 0 0 Z " fill="#8ECC9E" transform="translate(120,112)"/>
<path d="M0 0 C1.32 0 2.64 0 4 0 C3.67 1.65 3.34 3.3 3 5 C2.01 4.67 1.02 4.34 0 4 C0 2.68 0 1.36 0 0 Z " fill="#BAE3A0" transform="translate(204,86)"/>
<path d="M0 0 C1.32 1.65 2.64 3.3 4 5 C2.02 5.99 2.02 5.99 0 7 C-0.66 6.34 -1.32 5.68 -2 5 C-1.34 3.35 -0.68 1.7 0 0 Z " fill="#A2CFB0" transform="translate(179,76)"/>
<path d="M0 0 C0.66 0.33 1.32 0.66 2 1 C2.73075648 3.3140622 3.40138258 5.64828869 4 8 C2.0625 7.1875 2.0625 7.1875 0 6 C-1 3 -1 3 0 0 Z " fill="#A5E2DB" transform="translate(133,53)"/>
<path d="M0 0 C0 0.66 0 1.32 0 2 C-3.96 3.98 -3.96 3.98 -8 6 C-8.66 5.34 -9.32 4.68 -10 4 C-8.71086513 3.32845067 -7.41859796 2.66291141 -6.125 2 C-5.40570313 1.62875 -4.68640625 1.2575 -3.9453125 0.875 C-2 0 -2 0 0 0 Z " fill="#B2E1B7" transform="translate(211,48)"/>
<path d="M0 0 C2.97 1.65 5.94 3.3 9 5 C5 6 5 6 2.8125 5.3125 C1 4 1 4 0 0 Z " fill="#86D9E4" transform="translate(87,44)"/>
<path d="M0 0 C0.99 0.33 1.98 0.66 3 1 C3.33 2.65 3.66 4.3 4 6 C1.525 5.01 1.525 5.01 -1 4 C-0.67 2.68 -0.34 1.36 0 0 Z " fill="#A4CDDF" transform="translate(22,30)"/>
<path d="M0 0 C1.98 0 3.96 0 6 0 C6 0.99 6 1.98 6 3 C4.35 3 2.7 3 1 3 C0.67 2.01 0.34 1.02 0 0 Z " fill="#5686AF" transform="translate(77,186)"/>
<path d="M0 0 C1.32 0 2.64 0 4 0 C4 0.66 4 1.32 4 2 C4.66 2 5.32 2 6 2 C6.33 1.34 6.66 0.68 7 0 C7 0.99 7 1.98 7 3 C5.02 3.33 3.04 3.66 1 4 C0.67 2.68 0.34 1.36 0 0 Z " fill="#BAE2AF" transform="translate(172,183)"/>
<path d="M0 0 C1.74627478 2.61941217 2.38722388 4.03824877 3 7 C1.68 6.67 0.36 6.34 -1 6 C-0.67 4.02 -0.34 2.04 0 0 Z " fill="#5CA476" transform="translate(95,162)"/>
<path d="M0 0 C1.65 0 3.3 0 5 0 C4.34 1.32 3.68 2.64 3 4 C1.68 3.67 0.36 3.34 -1 3 C-0.67 2.01 -0.34 1.02 0 0 Z " fill="#67B094" transform="translate(107,133)"/>
<path d="M0 0 C2.64 0.33 5.28 0.66 8 1 C5.08235 2.9451 3.37462715 3.45276317 0 4 C0 2.68 0 1.36 0 0 Z " fill="#79D173" transform="translate(191,89)"/>
<path d="M0 0 C0.99 0.99 1.98 1.98 3 3 C2.67 3.66 2.34 4.32 2 5 C-0.0625 5.625 -0.0625 5.625 -2 6 C-1.34 4.02 -0.68 2.04 0 0 Z " fill="#9DD3A5" transform="translate(128,78)"/>
<path d="M0 0 C0.66 0.33 1.32 0.66 2 1 C0.25 3.0625 0.25 3.0625 -2 5 C-4.25 4.75 -4.25 4.75 -6 4 C-4.02 2.68 -2.04 1.36 0 0 Z " fill="#B0E0C0" transform="translate(166,45)"/>
<path d="M0 0 C0.66 0 1.32 0 2 0 C2 1.98 2 3.96 2 6 C0.68 6.33 -0.64 6.66 -2 7 C-2 6.34 -2 5.68 -2 5 C-1.34 5 -0.68 5 0 5 C0 3.35 0 1.7 0 0 Z " fill="#A4DB84" transform="translate(254,19)"/>
</svg>
