<?xml version="1.0" encoding="UTF-8"?>
<svg version="1.1" xmlns="http://www.w3.org/2000/svg" width="256" height="150">
<path d="M0 0 C1.60279192 0.00015914 3.20558896 0.00585476 4.80834961 0.01586914 C5.65038437 0.01728409 6.49241913 0.01869904 7.35997009 0.02015686 C10.06024671 0.02577276 12.76044163 0.03832791 15.46069336 0.05102539 C17.28686404 0.05603834 19.11303602 0.06060161 20.93920898 0.06469727 C25.42556878 0.07574735 29.9118672 0.0930226 34.39819336 0.11352539 C42.18599001 14.72191404 49.64348957 29.48299606 57.02319336 44.30102539 C58.11414776 46.48796986 59.20529284 48.67481921 60.29663086 50.86157227 C62.39238376 55.06150088 64.48709138 59.26194782 66.58081055 63.46289062 C69.29032837 68.89868044 72.00588454 74.33142925 74.72366333 79.76309204 C76.73535769 83.78468313 78.74037766 87.80954092 80.74194336 91.83618164 C85.81887216 102.04041497 90.9280642 112.20559306 96.34350586 122.23461914 C99.11517377 127.42054825 101.75518438 132.67370853 104.39819336 137.92602539 C104.89206543 138.90087891 105.3859375 139.87573242 105.89477539 140.88012695 C106.34965332 141.78859375 106.80453125 142.69706055 107.27319336 143.63305664 C107.68311523 144.4487915 108.09303711 145.26452637 108.51538086 146.10498047 C109.39819336 148.11352539 109.39819336 148.11352539 109.39819336 150.11352539 C94.21819336 150.11352539 79.03819336 150.11352539 63.39819336 150.11352539 C58.32937318 140.48276704 53.26531663 130.84777192 48.39819336 121.11352539 C26.61819336 121.11352539 4.83819336 121.11352539 -17.60180664 121.11352539 C-22.72332122 130.71636522 -27.73468337 140.37927886 -32.60180664 150.11352539 C-47.45180664 150.11352539 -62.30180664 150.11352539 -77.60180664 150.11352539 C-77.60180664 143.36373826 -77.60180664 143.36373826 -75.89282227 140.10620117 C-75.51822876 139.3774881 -75.14363525 138.64877502 -74.75769043 137.89797974 C-74.1391217 136.74010452 -74.1391217 136.74010452 -73.50805664 135.55883789 C-73.08310913 134.7396286 -72.65816162 133.92041931 -72.22033691 133.0763855 C-70.85887575 130.45763887 -69.48091481 127.84801438 -68.10180664 125.23852539 C-67.20482347 123.52298027 -66.30897928 121.80683911 -65.41430664 120.09008789 C-64.08848528 117.54646831 -62.76174799 115.0033801 -61.43005371 112.46282959 C-58.29362487 106.47405284 -55.24350442 100.44688415 -52.23608398 94.39248657 C-49.93198767 89.7576151 -47.55648313 85.16999249 -45.10180664 80.61352539 C-41.13024251 73.17211368 -37.32861752 65.65592048 -33.58569336 58.09741211 C-31.93307619 54.76511258 -30.26687747 51.4396148 -28.60180664 48.11352539 C-26.64207377 44.19880131 -24.68424349 40.28326962 -22.74243164 36.35961914 C-18.63963741 28.08470871 -14.42735216 19.86957869 -10.16430664 11.67602539 C-9.63160156 10.64985107 -9.09889648 9.62367676 -8.55004883 8.56640625 C-7.80416504 7.13760132 -7.80416504 7.13760132 -7.04321289 5.67993164 C-6.37334351 4.39517944 -6.37334351 4.39517944 -5.68994141 3.08447266 C-4.05765171 0.12789318 -4.05765171 0.12789318 0 0 Z M-2.60180664 13.11352539 C-2.85840758 16.19273671 -2.99612168 18.32489532 -1.60180664 21.11352539 C1.34546871 21.01183378 1.34546871 21.01183378 4.39819336 20.11352539 C5.85110609 17.65096854 5.85110609 17.65096854 6.39819336 15.11352539 C5.1085416 13.73789685 3.77130043 12.40586146 2.39819336 11.11352539 C0.07461824 10.92862533 0.07461824 10.92862533 -2.60180664 13.11352539 Z M17.39819336 32.11352539 C16.98152669 34.61352539 16.98152669 34.61352539 17.39819336 37.11352539 C20.17933392 39.44743742 20.17933392 39.44743742 23.08569336 38.73852539 C23.84881836 38.53227539 24.61194336 38.32602539 25.39819336 38.11352539 C26.0762037 35.21279358 26.0762037 35.21279358 26.39819336 32.11352539 C24.57116109 29.86433459 24.57116109 29.86433459 21.89819336 29.86352539 C19.22522563 29.86433459 19.22522563 29.86433459 17.39819336 32.11352539 Z M14.39819336 50.11352539 C12.45667599 53.97166396 10.51789817 57.83116356 8.58154297 61.69189453 C7.92374837 63.00248456 7.26523326 64.31271325 6.60595703 65.62255859 C5.65324901 67.51571419 4.70322202 69.41019544 3.75366211 71.30493164 C3.18284912 72.4413208 2.61203613 73.57770996 2.02392578 74.74853516 C0.37178821 78.16817956 -1.1324582 81.61238916 -2.60180664 85.11352539 C8.79587387 86.48801376 19.97548512 85.82795091 31.39819336 85.11352539 C30.39627767 80.70888873 28.6100497 76.78753359 26.77319336 72.67602539 C26.24338867 71.48517334 26.24338867 71.48517334 25.70288086 70.27026367 C22.58897209 63.36266874 19.12677475 56.70845373 15.39819336 50.11352539 C15.06819336 50.11352539 14.73819336 50.11352539 14.39819336 50.11352539 Z M52.39819336 66.11352539 C50.06540602 68.0045968 50.06540602 68.0045968 50.21069336 71.17602539 C50.06631543 74.00185675 50.06631543 74.00185675 51.39819336 75.11352539 C53.81301748 75.61412456 53.81301748 75.61412456 56.39819336 75.11352539 C58.26063716 72.70493825 58.26063716 72.70493825 59.39819336 70.11352539 C58.17229144 68.03375242 58.17229144 68.03375242 56.39819336 66.11352539 C55.07819336 66.11352539 53.75819336 66.11352539 52.39819336 66.11352539 Z M-26.60180664 94.11352539 C-26.93180664 94.77352539 -27.26180664 95.43352539 -27.60180664 96.11352539 C-27.27180664 96.77352539 -26.94180664 97.43352539 -26.60180664 98.11352539 C-24.95180664 97.45352539 -23.30180664 96.79352539 -21.60180664 96.11352539 C-22.26180664 95.45352539 -22.92180664 94.79352539 -23.60180664 94.11352539 C-24.59180664 94.11352539 -25.58180664 94.11352539 -26.60180664 94.11352539 Z M51.21069336 97.11352539 C50.61256836 97.77352539 50.01444336 98.43352539 49.39819336 99.11352539 C50.53574956 101.70493825 50.53574956 101.70493825 52.39819336 104.11352539 C54.94109961 104.69703044 54.94109961 104.69703044 57.39819336 104.11352539 C59.63664351 102.28436898 59.63664351 102.28436898 59.71069336 99.61352539 C59.60756836 98.78852539 59.50444336 97.96352539 59.39819336 97.11352539 C55.75236329 94.68297201 54.52922499 94.07943933 51.21069336 97.11352539 Z M74.39819336 108.11352539 C72.14900256 109.94055766 72.14900256 109.94055766 72.14819336 112.61352539 C72.14900256 115.28649312 72.14900256 115.28649312 74.39819336 117.11352539 C76.90143668 117.09686211 76.90143668 117.09686211 79.39819336 116.11352539 C81.22157089 114.15669659 81.22157089 114.15669659 82.39819336 112.11352539 C80.64884438 110.0301946 80.64884438 110.0301946 78.39819336 108.11352539 C77.07819336 108.11352539 75.75819336 108.11352539 74.39819336 108.11352539 Z M-50.60180664 120.11352539 C-50.65788086 121.25241211 -50.65788086 121.25241211 -50.71508789 122.41430664 C-50.78083008 123.40817383 -50.84657227 124.40204102 -50.91430664 125.42602539 C-50.97231445 126.4121582 -51.03032227 127.39829102 -51.09008789 128.41430664 C-51.66127696 131.42721998 -52.39136726 132.12888358 -54.60180664 134.11352539 C-54.68205322 136.71242322 -54.68205322 136.71242322 -53.60180664 139.11352539 C-51.63422391 140.4737269 -51.63422391 140.4737269 -49.60180664 141.11352539 C-48.28180664 140.12352539 -46.96180664 139.13352539 -45.60180664 138.11352539 C-45.94408236 135.1428703 -45.94408236 135.1428703 -46.60180664 132.11352539 C-47.26180664 131.78352539 -47.92180664 131.45352539 -48.60180664 131.11352539 C-49.01586914 128.60961914 -49.01586914 128.60961914 -49.22680664 125.55102539 C-49.30157227 124.53911133 -49.37633789 123.52719727 -49.45336914 122.48461914 C-49.50235352 121.7021582 -49.55133789 120.91969727 -49.60180664 120.11352539 C-49.93180664 120.11352539 -50.26180664 120.11352539 -50.60180664 120.11352539 Z " fill="#1DA5C6" transform="translate(77.601806640625,-0.113525390625)"/>
<path d="M0 0 C42.24 0 84.48 0 128 0 C128 12.21 128 24.42 128 37 C115.79 37 103.58 37 91 37 C90.67 74.29 90.34 111.58 90 150 C85.40494384 148.85123596 83.49415628 146.81097606 80.375 143.5 C77.04275785 139.79727917 77.04275785 139.79727917 73 137 C73 136.34 73 135.68 73 135 C72.43796875 134.76667969 71.8759375 134.53335938 71.296875 134.29296875 C68.43265858 132.68062924 66.52747979 130.6806438 64.25 128.3125 C60.00606009 123.97425032 55.61244412 119.93803975 51 116 C49.30331793 114.30331793 49.88031007 112.18867982 49.87557983 109.92559814 C49.88097275 108.83695465 49.88097275 108.83695465 49.88647461 107.72631836 C49.88632858 106.96539383 49.88618256 106.2044693 49.8860321 105.42048645 C49.88673138 102.89357702 49.89452445 100.36674038 49.90234375 97.83984375 C49.90420788 96.0924941 49.9056318 94.34514393 49.90663147 92.59779358 C49.91045707 87.98968066 49.92028771 83.38159905 49.93133545 78.77349854 C49.94154866 74.07491479 49.9461289 69.37632601 49.95117188 64.67773438 C49.96190995 55.45180692 49.97950708 46.22591096 50 37 C44.39 37 38.78 37 33 37 C31.93453047 33.8035914 31.92572162 31.34252724 32 28 C29.58354218 27.83312552 29.58354218 27.83312552 27 28 C24.58878141 29.95633975 24.58878141 29.95633975 24.875 33.625 C24.91625 34.73875 24.9575 35.8525 25 37 C23.02 37 21.04 37 19 37 C14.32765142 28.86665247 9.75505536 20.70547668 5.5625 12.3125 C5.23314453 11.65443359 4.90378906 10.99636719 4.56445312 10.31835938 C2.88198168 6.91477935 1.41324675 3.53311688 0 0 Z M97 15 C95.22590192 16.92022703 95.22590192 16.92022703 94 19 C94.63979849 21.03241727 94.63979849 21.03241727 96 23 C98.87939419 23.93580311 100.25509788 24.37245106 103 23 C103.92466753 20.6272914 103.92466753 20.6272914 104 18 C102.91666667 16.08333333 102.91666667 16.08333333 101 15 C99.68 15 98.36 15 97 15 Z M27 17 C26.67 17.99 26.34 18.98 26 20 C27.98 20.99 27.98 20.99 30 22 C30.66 20.68 31.32 19.36 32 18 C30.35 17.67 28.7 17.34 27 17 Z M57 29 C56.67 30.98 56.34 32.96 56 35 C57.32 35.99 58.64 36.98 60 38 C62.51570636 37.02617818 63.73944098 36.53848865 64.9375 34.0625 C65.19647307 31.94271115 65.19647307 31.94271115 63.875 30.25 C61.46145349 28.64096899 59.84326464 28.76946503 57 29 Z M65 93 C62.69328085 95.71549154 62.69328085 95.71549154 63.375 98.1875 C63.58125 98.785625 63.7875 99.38375 64 100 C65.32 99.67 66.64 99.34 68 99 C68 97.68 68 96.36 68 95 C67.34 95 66.68 95 66 95 C65.67 94.34 65.34 93.68 65 93 Z M73 108 C70.85164036 110.24743206 70.85164036 110.24743206 69 113 C69.17439507 116.05191378 69.81258515 116.81258515 72 119 C75.30683466 118.71016731 75.30683466 118.71016731 78 117 C78.04063832 115.33382885 78.042721 113.66611905 78 112 C77.360625 111.71125 76.72125 111.4225 76.0625 111.125 C74 110 74 110 73 108 Z " fill="#75C440" transform="translate(125,0)"/>
<path d="M0 0 C0 37.29 0 74.58 0 113 C-4.00466553 110.99766723 -6.05285957 109.12427254 -9.125 105.9375 C-12.24105765 102.53546517 -12.24105765 102.53546517 -16 100 C-16 99.34 -16 98.68 -16 98 C-16.56203125 97.76667969 -17.1240625 97.53335938 -17.703125 97.29296875 C-20.56734142 95.68062924 -22.47252021 93.6806438 -24.75 91.3125 C-28.99393991 86.97425032 -33.38755588 82.93803975 -38 79 C-39 78 -39 78 -39.12025452 75.33616638 C-39.11803391 74.14813919 -39.11581329 72.960112 -39.11352539 71.73608398 C-39.11367142 71.08244873 -39.11381744 70.42881348 -39.1139679 69.75537109 C-39.11326883 67.58557872 -39.10547678 65.41587121 -39.09765625 63.24609375 C-39.09579205 61.74536689 -39.09436816 60.24463943 -39.09336853 58.74391174 C-39.08954352 54.78681774 -39.0797134 50.82976022 -39.06866455 46.87268066 C-39.05845006 42.83765151 -39.05387083 38.80261647 -39.04882812 34.76757812 C-39.03809111 26.84503531 -39.0210149 18.92252219 -39 11 C-33.3124046 11 -30.62370926 13.16586586 -26.36132812 16.78662109 C-21.51541048 23.38111738 -22.84691454 31.48227285 -23.25 39.3125 C-23.29667693 41.06823333 -23.3383866 42.82410611 -23.375 44.58007812 C-23.70105171 57.25008808 -23.70105171 57.25008808 -25 62 C-24.01 62 -23.02 62 -22 62 C-21.67 60.68 -21.34 59.36 -21 58 C-21.66 58 -22.32 58 -23 58 C-23.05802698 54.56257082 -23.09360486 51.12526747 -23.125 47.6875 C-23.14175781 46.71103516 -23.15851563 45.73457031 -23.17578125 44.72851562 C-23.18222656 43.79072266 -23.18867188 42.85292969 -23.1953125 41.88671875 C-23.20578613 41.02264404 -23.21625977 40.15856934 -23.22705078 39.26831055 C-23 37 -23 37 -21 34 C-20.34 34 -19.68 34 -19 34 C-18.67 33.34 -18.34 32.68 -18 32 C-17.34 32.33 -16.68 32.66 -16 33 C-16 46.2 -16 59.4 -16 73 C-17.485 73.495 -17.485 73.495 -19 74 C-19.16687448 76.41645782 -19.16687448 76.41645782 -19 79 C-18.34 79.66 -17.68 80.32 -17 81 C-14.39719432 80.67958603 -14.39719432 80.67958603 -12 80 C-11.83312552 77.58354218 -11.83312552 77.58354218 -12 75 C-12.66 74.34 -13.32 73.68 -14 73 C-14.29434204 70.95309448 -14.29434204 70.95309448 -14.35400391 68.40185547 C-14.37967438 67.44681122 -14.40534485 66.49176697 -14.43179321 65.50778198 C-14.44656708 64.4713858 -14.46134094 63.43498962 -14.4765625 62.3671875 C-14.49270599 61.30138458 -14.50884949 60.23558167 -14.52548218 59.13748169 C-14.55318367 56.87622602 -14.57461916 54.61488637 -14.59033203 52.35351562 C-14.62466594 48.90851898 -14.71238562 45.46741014 -14.80078125 42.0234375 C-14.82104392 39.82554905 -14.83807339 37.62762795 -14.8515625 35.4296875 C-14.88657867 34.40543671 -14.92159485 33.38118591 -14.95767212 32.32589722 C-14.93175509 28.01184899 -14.86895005 25.13587431 -12.19152832 21.63600159 C-10.00048828 19.50561523 -10.00048828 19.50561523 -7.8039856 17.69187927 C-5.65734433 15.98737698 -5.65734433 15.98737698 -5.140625 12.48046875 C-5.19476563 10.85044922 -5.19476563 10.85044922 -5.25 9.1875 C-5.328125 5.85546875 -5.328125 5.85546875 -5 3 C-1.89440994 0 -1.89440994 0 0 0 Z " fill="#4F9F35" transform="translate(214,37)"/>
<path d="M0 0 C3.67604581 3.0831352 4.57718542 5.243336 5 10 C5 10.33 5 10.66 5 11 C5.66 10.67 6.32 10.34 7 10 C9.72426311 12.35277269 10.8141763 14.62496331 12 18 C12.66 18 13.32 18 14 18 C15.42944945 20.35438733 16.08661261 21.48032433 15.625 24.25 C15.41875 24.8275 15.2125 25.405 15 26 C14.01 26 13.02 26 12 26 C10.68858691 28.52194826 9.66075102 30.93697337 8.6875 33.625 C7 37 7 37 4.5625 38.25 C3.716875 38.4975 2.87125 38.745 2 39 C1.4225 39.474375 0.845 39.94875 0.25 40.4375 C-3.17432262 42.81550182 -7.03366167 43.80501345 -11 45 C-9.29869234 45 -7.62353028 44.71409908 -5.9375 44.5 C-3.9884375 44.2525 -3.9884375 44.2525 -2 44 C-2 44.66 -2 45.32 -2 46 C-2.58394531 46.24878906 -3.16789062 46.49757812 -3.76953125 46.75390625 C-6.31316284 48.17495437 -7.79407698 49.73192915 -9.6875 51.9375 C-10.28949219 52.62714844 -10.89148438 53.31679687 -11.51171875 54.02734375 C-13.1871876 56.03001971 -13.1871876 56.03001971 -14 59 C-14.99 59.495 -14.99 59.495 -16 60 C-16.165 60.825 -16.33 61.65 -16.5 62.5 C-16.665 63.325 -16.83 64.15 -17 65 C-17.99 65.495 -17.99 65.495 -19 66 C-20.04500851 67.61995892 -20.04500851 67.61995892 -21 69.5 C-22.77777778 72.88888889 -22.77777778 72.88888889 -25 74 C-23.01681318 68.66142133 -20.21839631 63.83233457 -17.4609375 58.86328125 C-15.84850333 56.23882514 -15.84850333 56.23882514 -16 54 C-16.31227539 54.63091553 -16.62455078 55.26183105 -16.94628906 55.91186523 C-18.36658239 58.76112503 -19.80792063 61.59920893 -21.25 64.4375 C-21.74113281 65.43072266 -22.23226562 66.42394531 -22.73828125 67.44726562 C-23.22167969 68.39150391 -23.70507812 69.33574219 -24.203125 70.30859375 C-24.64301758 71.18314209 -25.08291016 72.05769043 -25.53613281 72.95874023 C-27 75 -27 75 -28.94042969 75.82055664 C-32.04386733 76.09094861 -34.9451386 75.52872601 -38 75 C-38.96636493 72.43329024 -39.09492008 71.26961549 -38.1706543 68.64428711 C-37.72633057 67.7806958 -37.28200684 66.91710449 -36.82421875 66.02734375 C-36.33083008 65.05474609 -35.83744141 64.08214844 -35.32910156 63.08007812 C-34.78737305 62.04302734 -34.24564453 61.00597656 -33.6875 59.9375 C-33.13932617 58.86564453 -32.59115234 57.79378906 -32.02636719 56.68945312 C-30.36529017 53.45193996 -28.6865643 50.22429927 -27 47 C-26.29447998 45.65059326 -26.29447998 45.65059326 -25.57470703 44.27392578 C-23.89725727 41.07343845 -22.21451913 37.87586597 -20.52148438 34.68359375 C-17.84446126 29.63326164 -15.23744276 24.55314088 -12.6875 19.4375 C-12.36007813 18.78313965 -12.03265625 18.1287793 -11.6953125 17.45458984 C-10.27368848 14.60329763 -8.88055977 11.74360164 -7.53515625 8.85546875 C-7.11105469 7.95441406 -6.68695313 7.05335937 -6.25 6.125 C-5.90453125 5.36445313 -5.5590625 4.60390625 -5.203125 3.8203125 C-3.75418451 1.62808436 -2.41032196 0.9621033 0 0 Z " fill="#1B5B90" transform="translate(63,26)"/>
<path d="M0 0 C4.85612361 -0.19875516 9.7098501 -0.34337321 14.5690918 -0.43945312 C16.21925111 -0.47952358 17.86912922 -0.53400048 19.51831055 -0.60351562 C33.27491971 -1.16857115 33.27491971 -1.16857115 37.57763672 1.74609375 C39.29760817 3.7479758 40.61483419 5.76288213 42 8 C42.99 8.66 43.98 9.32 45 10 C45 10.66 45 11.32 45 12 C49.95 12 54.9 12 60 12 C62.13961641 16.27923283 62.41859656 18.31171848 62 23 C60.75 25.4375 60.75 25.4375 59 27 C57.68 27 56.36 27 55 27 C55.33 26.443125 55.66 25.88625 56 25.3125 C57.1309601 22.69715478 57.15662974 20.8193354 57 18 C54.69 17.67 52.38 17.34 50 17 C50 16.34 50 15.68 50 15 C45.76376458 15.09346313 41.52809149 15.19953913 37.29248047 15.31738281 C35.8511626 15.35569674 34.40974832 15.39054543 32.96826172 15.421875 C30.89776114 15.46747446 28.82792567 15.52547444 26.7578125 15.5859375 C24.88826904 15.63306885 24.88826904 15.63306885 22.98095703 15.68115234 C19.88458224 15.69682309 19.88458224 15.69682309 18 18 C17.83322718 21.58343976 17.83322718 21.58343976 18 25 C16.02 25 14.04 25 12 25 C10.56069536 22.45934066 9.12351161 19.91751978 7.6875 17.375 C7.28337891 16.66214844 6.87925781 15.94929688 6.46289062 15.21484375 C0 3.76028963 0 3.76028963 0 0 Z M20 5 C19.67 5.99 19.34 6.98 19 8 C20.98 8.99 20.98 8.99 23 10 C23.66 8.68 24.32 7.36 25 6 C23.35 5.67 21.7 5.34 20 5 Z " fill="#69B746" transform="translate(132,12)"/>
<path d="M0 0 C1.82818604 0.20802307 1.82818604 0.20802307 4 1 C5.43011475 3.00498962 5.43011475 3.00498962 6.74902344 5.67163086 C7.24924011 6.66613754 7.74945679 7.66064423 8.26483154 8.68528748 C9.05413055 10.30866783 9.05413055 10.30866783 9.859375 11.96484375 C10.40861633 13.0684877 10.95785767 14.17213165 11.52374268 15.30921936 C12.98066884 18.24463437 14.42481912 21.18590386 15.8637085 24.13018799 C17.33291958 27.12618066 18.82229973 30.1120559 20.30859375 33.09960938 C21.43080834 35.36663301 22.55193918 37.63419351 23.671875 39.90234375 C24.20617126 40.98257309 24.74046753 42.06280243 25.29095459 43.17576599 C26.02236664 44.67225426 26.02236664 44.67225426 26.76855469 46.19897461 C27.20061218 47.07976181 27.63266968 47.96054901 28.07781982 48.86802673 C29 51 29 51 29 53 C27.68 52.67 26.36 52.34 25 52 C24.67 56.62 24.34 61.24 24 66 C23.34 66 22.68 66 22 66 C22 60.72 22 55.44 22 50 C19.69 50 17.38 50 15 50 C15 49.34 15 48.68 15 48 C14.236875 47.7525 13.47375 47.505 12.6875 47.25 C9.62968192 45.82775903 8.75317981 44.83731885 7 42 C6.3046875 39.30859375 6.3046875 39.30859375 5.875 36.4375 C5.41583214 33.46902005 4.95220887 30.85662662 4 28 C1.98491642 27.26676204 1.98491642 27.26676204 0 27 C-0.33 24.69 -0.66 22.38 -1 20 C-1.99 19.67 -2.98 19.34 -4 19 C-4.62621031 12.11168659 -2.35806067 6.41097745 0 0 Z " fill="#20D3D6" transform="translate(109,0)"/>
<path d="M0 0 C14.19 0 28.38 0 43 0 C43 12.21 43 24.42 43 37 C30.79 37 18.58 37 6 37 C6 36.67 6 36.34 6 36 C17.88 36 29.76 36 42 36 C35.14827864 22.29655729 26.5490466 10.15796856 12 4 C8.03527322 2.8091472 4.05198348 1.84330621 0 1 C0 0.67 0 0.34 0 0 Z " fill="#BCE17C" transform="translate(210,0)"/>
<path d="M0 0 C0 37.95 0 75.9 0 115 C-0.33 115 -0.66 115 -1 115 C-1.33 78.04 -1.66 41.08 -2 3 C-2.99 3.66 -3.98 4.32 -5 5 C-5.26479635 8.16858007 -5.18397078 11.26784937 -5.10546875 14.4453125 C-6.12361508 18.49122151 -6.90173039 18.94878955 -9.9934082 21.50341797 C-14.23092152 25.62288228 -14.94381146 28.56907821 -15.05883789 34.37719727 C-15.03942139 35.40772217 -15.02000488 36.43824707 -15 37.5 C-15.01087646 38.57628662 -15.02175293 39.65257324 -15.03295898 40.76147461 C-15.05900774 44.17535032 -15.03033841 47.58620659 -15 51 C-15.00809612 53.32423419 -15.01977722 55.64845884 -15.03515625 57.97265625 C-15.0649272 63.64898499 -15.04986488 69.32384187 -15 75 C-17.44288317 72.55711683 -17.27375277 71.85291134 -17.35400391 68.49365234 C-17.37967438 67.55862885 -17.40534485 66.62360535 -17.43179321 65.6602478 C-17.44656708 64.6457254 -17.46134094 63.631203 -17.4765625 62.5859375 C-17.49270599 61.54233063 -17.50884949 60.49872375 -17.52548218 59.42349243 C-17.55318287 57.20931662 -17.57461873 54.99505505 -17.59033203 52.78076172 C-17.62466248 49.40815755 -17.71238095 46.0395267 -17.80078125 42.66796875 C-17.82104432 40.51565382 -17.83807366 38.36330554 -17.8515625 36.2109375 C-17.88657867 35.20856049 -17.92159485 34.20618347 -17.95767212 33.1734314 C-17.93148876 28.90464286 -17.84904904 26.10262913 -15.1890564 22.64819336 C-12.99609375 20.51708984 -12.99609375 20.51708984 -10.79711914 18.69613647 C-8.65793896 16.9929918 -8.65793896 16.9929918 -8.2109375 13.515625 C-8.26507813 12.43796875 -8.31921875 11.3603125 -8.375 10.25 C-8.30040695 4.39783623 -8.30040695 4.39783623 -6.69921875 2.27734375 C-4.51435216 0.82250418 -2.64483279 0 0 0 Z " fill="#CBE2BC" transform="translate(215,35)"/>
<path d="M0 0 C8.91 0 17.82 0 27 0 C27 1.65 27 3.3 27 5 C23.535 6.485 23.535 6.485 20 8 C20 8.66 20 9.32 20 10 C14.39 10 8.78 10 3 10 C1.93453047 6.8035914 1.92572162 4.34252724 2 1 C1.34 0.67 0.68 0.34 0 0 Z " fill="#8BC86D" transform="translate(155,27)"/>
<path d="M0 0 C4.98023509 -0.19896452 9.95812045 -0.34347304 14.94140625 -0.43945312 C16.63322273 -0.47948848 18.3247658 -0.53393834 20.015625 -0.60351562 C34.56707459 -1.18694639 34.56707459 -1.18694639 38.15039062 1.78125 C38.67826172 2.503125 39.20613281 3.225 39.75 3.96875 C41.66983474 6.44149714 43.06263723 7.79387557 46.15942383 8.47485352 C52.91681351 9.20815854 59.71295615 9.06739971 66.5 9 C68.58335056 9.0080976 70.66669045 9.01978006 72.75 9.03515625 C77.83414868 9.06490382 82.91599228 9.04568754 88 9 C88 9.66 88 10.32 88 11 C81.72004829 11.20350013 75.44095133 11.34320641 69.15844727 11.43945312 C67.02335847 11.4795882 64.88848824 11.53411159 62.75415039 11.60351562 C59.67799948 11.7010119 56.60476214 11.74602453 53.52734375 11.78125 C52.57915268 11.82254028 51.63096161 11.86383057 50.65403748 11.90637207 C43.96205707 11.91086296 43.96205707 11.91086296 41.09169006 9.1932373 C39.9555813 7.74009538 38.83088278 6.27795439 37.71824646 4.8067627 C35.71453953 2.69983391 34.75780173 2.35650914 31.90063477 2.09179688 C30.41362352 2.09304445 28.92617755 2.13715221 27.44140625 2.21875 C26.25767677 2.23572937 26.25767677 2.23572937 25.05003357 2.25305176 C22.55162242 2.29752053 20.05914757 2.397791 17.5625 2.5 C15.8601095 2.54016676 14.15762817 2.57666196 12.45507812 2.609375 C8.30112965 2.69715429 4.15156769 2.83496558 0 3 C0 2.01 0 1.02 0 0 Z " fill="#D6E8C7" transform="translate(131,10)"/>
<path d="M0 0 C7.26 0 14.52 0 22 0 C21.01 0.99 20.02 1.98 19 3 C21.475 3.495 21.475 3.495 24 4 C23.360625 4.103125 22.72125 4.20625 22.0625 4.3125 C21.0415625 4.6528125 21.0415625 4.6528125 20 5 C19.67 5.99 19.34 6.98 19 8 C14.38 8 9.76 8 5 8 C4.67 8.99 4.34 9.98 4 11 C3.32591692 9.73308493 2.66099503 8.46129251 2 7.1875 C1.62875 6.47980469 1.2575 5.77210937 0.875 5.04296875 C0 3 0 3 0 0 Z " fill="#8CC96C" transform="translate(132,12)"/>
<path d="M0 0 C0.5165918 0.32145996 1.03318359 0.64291992 1.56542969 0.97412109 C4.76849083 2.32382656 7.48087011 2.32578483 10.953125 2.4140625 C11.61334656 2.43342865 12.27356812 2.4527948 12.95379639 2.4727478 C15.05240153 2.53229349 17.15106228 2.57882722 19.25 2.625 C20.6771066 2.66320294 22.10419072 2.70225602 23.53125 2.7421875 C27.02062691 2.8379733 30.51017286 2.92209642 34 3 C34.33 2.34 34.66 1.68 35 1 C36.00508801 2.78881736 37.00392736 4.58114696 38 6.375 C38.556875 7.37273437 39.11375 8.37046875 39.6875 9.3984375 C41 12 41 12 41 14 C39.0625 13.3125 39.0625 13.3125 37 12 C36.25 9.375 36.25 9.375 36 7 C31.34947128 6.73067479 31.34947128 6.73067479 27 8 C27 7.34 27 6.68 27 6 C24.03 6 21.06 6 18 6 C17.67 6.66 17.34 7.32 17 8 C17 7.34 17 6.68 17 6 C15.66195312 6.10441406 15.66195312 6.10441406 14.296875 6.2109375 C4.85058016 6.64788065 4.85058016 6.64788065 2.24609375 4.6640625 C1.1875 3 1.1875 3 0 0 Z " fill="#7CD5E5" transform="translate(138,120)"/>
<path d="M0 0 C0.66 0.33 1.32 0.66 2 1 C1.38125 1.680625 0.7625 2.36125 0.125 3.0625 C-2.18894689 5.88590052 -2.18894689 5.88590052 -2.875 9.375 C-4.29140206 13.9389622 -6.21664866 17.04057851 -10 20 C-12.95436653 20.68935219 -15.04798592 20.9432305 -18 21 C-19.83451243 21.17558905 -21.66790678 21.36324692 -23.5 21.5625 C-24.99990298 21.70932785 -26.49986903 21.85552017 -28 22 C-25.79643418 19.53601276 -24.97894787 18.99415218 -21.625 18.0625 C-17.81890028 16.94691905 -16.02375156 15.46674469 -13 13 C-10.1875 12.25 -10.1875 12.25 -8 12 C-7.566875 10.3603125 -7.566875 10.3603125 -7.125 8.6875 C-6.0181687 5.05955296 -5.27485647 2.79678529 -2 0.75 C-1.34 0.5025 -0.68 0.255 0 0 Z " fill="#5F91B3" transform="translate(79,50)"/>
<path d="M0 0 C2.64539841 2.21872125 3.89688903 3.69066708 5 7 C5 10 5 10 3.4375 12.375 C0.41791735 14.3880551 -1.44069018 14.32357362 -5 14 C-6.21153846 6.73076923 -6.21153846 6.73076923 -5.3125 3.625 C-3.75057101 1.69118315 -2.29104056 0.91641622 0 0 Z " fill="#183D7C" transform="translate(63,26)"/>
<path d="M0 0 C0 0.66 0 1.32 0 2 C-0.58394531 2.24878906 -1.16789062 2.49757813 -1.76953125 2.75390625 C-4.31316284 4.17495437 -5.79407698 5.73192915 -7.6875 7.9375 C-8.28949219 8.62714844 -8.89148438 9.31679687 -9.51171875 10.02734375 C-11.1871876 12.03001971 -11.1871876 12.03001971 -12 15 C-12.99 15.495 -12.99 15.495 -14 16 C-14.165 16.825 -14.33 17.65 -14.5 18.5 C-14.665 19.325 -14.83 20.15 -15 21 C-15.66 21.33 -16.32 21.66 -17 22 C-18.04500851 23.61995892 -18.04500851 23.61995892 -19 25.5 C-20.77777778 28.88888889 -20.77777778 28.88888889 -23 30 C-21.52110546 26.02685049 -19.63690341 22.44377639 -17.5625 18.75 C-15.38853875 14.81276423 -13.63375802 11.2246377 -12.5 6.875 C-11.78360756 4.44994485 -11.43097611 3.32932081 -9.41015625 1.78515625 C-6.14761315 0.288387 -3.58997995 0 0 0 Z " fill="#3F8CB3" transform="translate(61,70)"/>
<path d="M0 0 C14.52 0 29.04 0 44 0 C44.495 1.98 44.495 1.98 45 4 C44.42699158 3.83923477 43.85398315 3.67846954 43.26361084 3.51283264 C41.03538161 3.00801589 39.06234275 2.8439395 36.78222656 2.79467773 C35.96167786 2.77473251 35.14112915 2.75478729 34.29571533 2.73423767 C33.41953552 2.71752518 32.54335571 2.70081268 31.640625 2.68359375 C30.73624695 2.66281265 29.8318689 2.64203156 28.90008545 2.62062073 C26.01679945 2.5553406 23.1334239 2.49634048 20.25 2.4375 C18.29295956 2.39429429 16.33592812 2.35067935 14.37890625 2.30664062 C9.5860288 2.19968128 4.79306146 2.09835327 0 2 C0 1.34 0 0.68 0 0 Z " fill="#BAD8E4" transform="translate(89,111)"/>
<path d="M0 0 C0.99 0.33 1.98 0.66 3 1 C3 6.61 3 12.22 3 18 C-0.97174513 16.01412744 -3.15007608 14.11805213 -6.25 11 C-7.14203125 10.113125 -8.0340625 9.22625 -8.953125 8.3125 C-11 6 -11 6 -11 4 C-8.62051228 4.17625835 -7.29774151 4.69719773 -5.62109375 6.40234375 C-4.37884514 7.90649092 -3.18623944 9.45129851 -2 11 C-1.34 10.67 -0.68 10.34 0 10 C0 6.7 0 3.4 0 0 Z " fill="#4A8540" transform="translate(211,132)"/>
<path d="M0 0 C2.33479983 3.64812473 2.38018947 6.74187788 2 11 C0.75 13.4375 0.75 13.4375 -1 15 C-2.32 15 -3.64 15 -5 15 C-4.67 14.443125 -4.34 13.88625 -4 13.3125 C-2.8690399 10.69715478 -2.84337026 8.8193354 -3 6 C-5.31 5.67 -7.62 5.34 -10 5 C-10 4.67 -10 4.34 -10 4 C-8.35 3.67 -6.7 3.34 -5 3 C-5.99 2.34 -6.98 1.68 -8 1 C-5.07175348 0.02391783 -3.04386724 -0.08226668 0 0 Z " fill="#6CBA4B" transform="translate(192,24)"/>
<path d="M0 0 C0.33 0.66 0.66 1.32 1 2 C1.84437622 2.20508179 1.84437622 2.20508179 2.70581055 2.41430664 C8.36811316 3.8598599 12.56400375 7.38663938 16 12 C17.78321125 18.13959538 17.03574187 24.76129327 16.6875 31.0625 C16.63224634 32.80388144 16.58206961 34.54543178 16.53710938 36.28710938 C16.41663106 40.5289512 16.22733875 44.76259655 16 49 C15.67 49 15.34 49 15 49 C15.0220752 47.95134766 15.04415039 46.90269531 15.06689453 45.82226562 C15.13606182 41.90047471 15.13869018 37.98088148 15.12207031 34.05859375 C15.12400717 32.36707206 15.14356475 30.67546921 15.18164062 28.984375 C15.64876367 18.97195971 15.64876367 18.97195971 11.83886719 10.09375 C8.14290162 7.05336702 4.73723784 4.89970261 0 4 C0 2.68 0 1.36 0 0 Z " fill="#F5F6F2" transform="translate(175,44)"/>
<path d="M0 0 C4.95 0 9.9 0 15 0 C14.67 1.32 14.34 2.64 14 4 C14 3.34 14 2.68 14 2 C10.04 2 6.08 2 2 2 C2 6.95 2 11.9 2 17 C1.34 16.67 0.68 16.34 0 16 C0 10.72 0 5.44 0 0 Z " fill="#98CBD6" transform="translate(80,33)"/>
<path d="M0 0 C2 1 2 1 3.1875 3.25 C4.12907534 6.43687038 3.81578273 7.81103115 3 11 C2.26309954 16.07642538 1.89322048 20.87458282 2 26 C1.34 26.33 0.68 26.66 0 27 C0 18.09 0 9.18 0 0 Z " fill="#40803B" transform="translate(175,87)"/>
<path d="M0 0 C4.5562338 1.70858768 8.57444059 3.78722029 13 6 C13 11.94 13 17.88 13 24 C12.34 24 11.68 24 11 24 C10.67 18.39 10.34 12.78 10 7 C8.535625 6.401875 7.07125 5.80375 5.5625 5.1875 C3.06640625 4.16796875 3.06640625 4.16796875 1 3 C0.67 2.01 0.34 1.02 0 0 Z " fill="#C6E8E7" transform="translate(120,42)"/>
<path d="M0 0 C0.99 0.33 1.98 0.66 3 1 C-0.4902011 5.36275138 -3.68220281 6.05651985 -9 7 C-9.66 6.67 -10.32 6.34 -11 6 C-11 6.66 -11 7.32 -11 8 C-11.99 8.33 -12.98 8.66 -14 9 C-12.25 3.25 -12.25 3.25 -10 1 C-10 1.66 -10 2.32 -10 3 C-4.6913151 2.41825155 -4.6913151 2.41825155 0 0 Z " fill="#7A9EB9" transform="translate(63,41)"/>
<path d="M0 0 C0.99 0.33 1.98 0.66 3 1 C2.23883449 2.15227823 1.46567307 3.2966386 0.6875 4.4375 C0.25824219 5.07558594 -0.17101562 5.71367188 -0.61328125 6.37109375 C-2 8 -2 8 -5 9 C-7.06145107 9.068991 -9.12501401 9.08467727 -11.1875 9.0625 C-12.81751953 9.04896484 -12.81751953 9.04896484 -14.48046875 9.03515625 C-15.31191406 9.02355469 -16.14335938 9.01195313 -17 9 C-16.67 8.34 -16.34 7.68 -16 7 C-12.37 7 -8.74 7 -5 7 C-4.34 5.68 -3.68 4.36 -3 3 C-2.01 3 -1.02 3 0 3 C0 2.01 0 1.02 0 0 Z " fill="#1A7BAB" transform="translate(71,85)"/>
<path d="M0 0 C2 2 2 2 2 5 C4.64 4.67 7.28 4.34 10 4 C7.45979921 7.10468986 4.82629933 7.98485936 1 9 C-0.32 9 -1.64 9 -3 9 C-2.5020163 5.26512223 -2.12508244 3.18762365 0 0 Z " fill="#2B4C87" transform="translate(56,35)"/>
<path d="M0 0 C6.93 0 13.86 0 21 0 C20.67 0.66 20.34 1.32 20 2 C17.4966352 2.26008985 15.07238169 2.42120408 12.5625 2.5 C7.2965085 2.38992942 7.2965085 2.38992942 3 5 C2.01 3.35 1.02 1.7 0 0 Z " fill="#2678AA" transform="translate(88,85)"/>
<path d="M0 0 C3 1 3 1 4 2.6875 C4.33 3.450625 4.66 4.21375 5 5 C5.7425 6.4540625 5.7425 6.4540625 6.5 7.9375 C7.80035393 10.59238927 8.9449188 13.24055685 10 16 C9.34 16 8.68 16 8 16 C8 15.34 8 14.68 8 14 C6.68 13.67 5.36 13.34 4 13 C3.67 10.69 3.34 8.38 3 6 C2.01 5.67 1.02 5.34 0 5 C0 3.35 0 1.7 0 0 Z " fill="#7AE3E1" transform="translate(105,14)"/>
<path d="M0 0 C0.33 0.66 0.66 1.32 1 2 C3.01669827 3.13350534 3.01669827 3.13350534 5 4 C5 4.66 5 5.32 5 6 C5.9075 6.0825 6.815 6.165 7.75 6.25 C11.40077839 7.09248732 12.63384583 8.17881618 15 11 C12.69 11 10.38 11 8 11 C8 10.34 8 9.68 8 9 C7.236875 8.7525 6.47375 8.505 5.6875 8.25 C2.72208305 6.8707363 1.61639727 5.80742685 0 3 C0 2.01 0 1.02 0 0 Z " fill="#17D0D0" transform="translate(116,39)"/>
<path d="M0 0 C0.680625 0.309375 1.36125 0.61875 2.0625 0.9375 C5.36965912 2.13370649 8.51545878 2.59005397 12 3 C12 3.99 12 4.98 12 6 C7.38 6 2.76 6 -2 6 C-1.34 4.02 -0.68 2.04 0 0 Z " fill="#67BAD0" transform="translate(23,99)"/>
<path d="M0 0 C0 0.66 0 1.32 0 2 C-0.556875 2.226875 -1.11375 2.45375 -1.6875 2.6875 C-4.63246684 4.35896766 -6.68156544 6.55276352 -9 9 C-10 6 -10 6 -9.3125 3.375 C-8 1 -8 1 -6.125 0.1875 C-4.09028218 0.00796607 -2.04262308 0 0 0 Z " fill="#1D6194" transform="translate(61,70)"/>
<path d="M0 0 C0.66 0.33 1.32 0.66 2 1 C1.360625 1.721875 0.72125 2.44375 0.0625 3.1875 C-1.98673535 5.98191184 -2.61332946 7.61663274 -3 11 C-4.65 11 -6.3 11 -8 11 C-5.48965517 2.93103448 -5.48965517 2.93103448 -2 0.75 C-1.34 0.5025 -0.68 0.255 0 0 Z " fill="#6294B1" transform="translate(79,50)"/>
<path d="M0 0 C2.64 0 5.28 0 8 0 C7.34 1.98 6.68 3.96 6 6 C4.35 5.67 2.7 5.34 1 5 C0.67 3.35 0.34 1.7 0 0 Z " fill="#55A741" transform="translate(132,12)"/>
<path d="M0 0 C0.99 0.33 1.98 0.66 3 1 C3 6.61 3 12.22 3 18 C2.67 18 2.34 18 2 18 C0.59545452 11.88019467 -0.23268915 6.28260706 0 0 Z " fill="#378729" transform="translate(211,132)"/>
<path d="M0 0 C3.465 1.98 3.465 1.98 7 4 C7 4.99 7 5.98 7 7 C7.66 7.33 8.32 7.66 9 8 C7.375 8.8125 7.375 8.8125 5 9 C2.75390165 7.53181864 0.97621323 5.84147142 -1 4 C-0.67 2.68 -0.34 1.36 0 0 Z " fill="#387634" transform="translate(182,117)"/>
<path d="M0 0 C0.66 0 1.32 0 2 0 C2 0.66 2 1.32 2 2 C3.98 2 5.96 2 8 2 C8.33 1.34 8.66 0.68 9 0 C9.66 1.98 10.32 3.96 11 6 C7.7 5.67 4.4 5.34 1 5 C0.67 3.35 0.34 1.7 0 0 Z " fill="#83CCDD" transform="translate(158,109)"/>
<path d="M0 0 C0.99 1.32 1.98 2.64 3 4 C2.236875 4.598125 1.47375 5.19625 0.6875 5.8125 C-1.3483575 7.46959332 -3.1978279 9.10297674 -5 11 C-5.39169887 8.33644766 -5.40564529 6.60775627 -3.88671875 4.33203125 C-2.63610683 2.8489112 -1.32135486 1.42045648 0 0 Z " fill="#1D6997" transform="translate(81,50)"/>
<path d="M0 0 C0.99 0.33 1.98 0.66 3 1 C3.125 3.875 3.125 3.875 3 7 C2.34 7.66 1.68 8.32 1 9 C-0.32 9 -1.64 9 -3 9 C-2.01 6.03 -1.02 3.06 0 0 Z " fill="#5EA850" transform="translate(190,30)"/>
<path d="M0 0 C0.66 0.33 1.32 0.66 2 1 C1.484375 1.70125 0.96875 2.4025 0.4375 3.125 C-1.30443767 6.60887535 -0.94693195 8.2983569 0 12 C-0.99 11.34 -1.98 10.68 -3 10 C-3.99 10.33 -4.98 10.66 -6 11 C-3.76687117 3.98159509 -3.76687117 3.98159509 -2 1 C-1.34 0.67 -0.68 0.34 0 0 Z " fill="#418BAC" transform="translate(66,17)"/>
<path d="M0 0 C-1.625 3 -1.625 3 -4 6 C-7.25 6.375 -7.25 6.375 -10 6 C-10 5.34 -10 4.68 -10 4 C-6.68165449 0.77646436 -4.65842688 -0.53239164 0 0 Z " fill="#7FA4BF" transform="translate(71,63)"/>
<path d="M0 0 C5.28 0 10.56 0 16 0 C16.33 1.32 16.66 2.64 17 4 C16.05125 3.690625 15.1025 3.38125 14.125 3.0625 C9.49061575 1.72071729 4.79447959 1.36657993 0 1 C0 0.67 0 0.34 0 0 Z " fill="#91C5D9" transform="translate(117,111)"/>
<path d="M0 0 C3.32368224 1.10789408 3.61563093 1.48436217 5.25 4.375 C5.60578125 4.98085938 5.9615625 5.58671875 6.328125 6.2109375 C7 8 7 8 6 11 C5.01 10.67 4.02 10.34 3 10 C2.05078125 7.71484375 2.05078125 7.71484375 1.3125 4.9375 C1.06113281 4.01839844 0.80976562 3.09929688 0.55078125 2.15234375 C0.36902344 1.44207031 0.18726562 0.73179688 0 0 Z " fill="#94E9E6" transform="translate(114,31)"/>
<path d="M0 0 C1.32 0.33 2.64 0.66 4 1 C0.67692308 5.8 0.67692308 5.8 -2.75 6.8125 C-3.4925 6.874375 -4.235 6.93625 -5 7 C-3.35 4.69 -1.7 2.38 0 0 Z " fill="#2D6E9A" transform="translate(72,61)"/>
<path d="M0 0 C2.17282078 3.25923117 2.76261647 5.12273569 3 9 C2.01 10.32 1.02 11.64 0 13 C0 8.71 0 4.42 0 0 Z " fill="#347F27" transform="translate(176,88)"/>
<path d="M0 0 C0.33 1.32 0.66 2.64 1 4 C-0.9375 6.75 -0.9375 6.75 -3 9 C-3.99 8.34 -4.98 7.68 -6 7 C-4.02 4.69 -2.04 2.38 0 0 Z " fill="#8ED3E3" transform="translate(42,109)"/>
<path d="M0 0 C2.3125 0.125 2.3125 0.125 5 1 C8 5.86206897 8 5.86206897 8 9 C6.0625 8.3125 6.0625 8.3125 4 7 C3.62690101 5.34178227 3.29299023 3.67422986 3 2 C2.01 1.34 1.02 0.68 0 0 Z " fill="#5BDBE4" transform="translate(171,125)"/>
<path d="M0 0 C0.66 0.99 1.32 1.98 2 3 C1.34 3.66 0.68 4.32 0 5 C-0.309375 5.825 -0.61875 6.65 -0.9375 7.5 C-2 10 -2 10 -5 12 C-3.68938409 7.76570244 -2.05643741 3.92592596 0 0 Z " fill="#58CDE2" transform="translate(18,109)"/>
<path d="M0 0 C0.33 0 0.66 0 1 0 C1 3.63 1 7.26 1 11 C0.01 10.34 -0.98 9.68 -2 9 C-1.51421457 5.87709365 -1.0013988 3.00419641 0 0 Z " fill="#3B8C2A" transform="translate(188,83)"/>
<path d="M0 0 C2.3125 0.1875 2.3125 0.1875 5 1 C6.8125 3.5625 6.8125 3.5625 8 6 C4.64532525 4.82133049 2.28780716 3.76945078 0 1 C0 0.67 0 0.34 0 0 Z " fill="#84CE47" transform="translate(163,12)"/>
<path d="M0 0 C0.680625 0.309375 1.36125 0.61875 2.0625 0.9375 C5.36965912 2.13370649 8.51545878 2.59005397 12 3 C12 3.33 12 3.66 12 4 C10.37509046 4.02698189 8.75005367 4.04638757 7.125 4.0625 C5.76761719 4.07990234 5.76761719 4.07990234 4.3828125 4.09765625 C2 4 2 4 0 3 C0 2.01 0 1.02 0 0 Z " fill="#36A3C5" transform="translate(23,99)"/>
<path d="M0 0 C0.66 0 1.32 0 2 0 C5.125 5.5 5.125 5.5 4 10 C2.35 7.03 0.7 4.06 -1 1 C-0.67 0.67 -0.34 0.34 0 0 Z " fill="#17D1D0" transform="translate(111,28)"/>
<path d="M0 0 C1.875 0.25 1.875 0.25 4 1 C5.25 3.0625 5.25 3.0625 6 5 C3 5 3 5 1.3125 3.625 C0 2 0 2 0 0 Z " fill="#3A7E33" transform="translate(200,136)"/>
<path d="M0 0 C0.66 0 1.32 0 2 0 C2.66 1.98 3.32 3.96 4 6 C1.525 5.01 1.525 5.01 -1 4 C-0.67 2.68 -0.34 1.36 0 0 Z " fill="#2ECED8" transform="translate(134,47)"/>
<path d="M0 0 C3.7952131 1.49097658 5.61042731 3.75700849 8 7 C7.01 7 6.02 7 5 7 C0 1.53488372 0 1.53488372 0 0 Z " fill="#DDEAD0" transform="translate(167,12)"/>
<path d="M0 0 C0.66 0.33 1.32 0.66 2 1 C1.34 2.98 0.68 4.96 0 7 C-1.65 7 -3.3 7 -5 7 C-4.54625 6.401875 -4.0925 5.80375 -3.625 5.1875 C-2.36704087 3.49409348 -1.17015276 1.75522914 0 0 Z " fill="#8FB9C9" transform="translate(76,54)"/>
<path d="M0 0 C0.33 0.66 0.66 1.32 1 2 C1.598125 2.12375 2.19625 2.2475 2.8125 2.375 C5.70194332 3.20055523 7.01607936 4.80351643 9 7 C8.01 7 7.02 7 6 7 C5 6 4 5 3 4 C2.01 4 1.02 4 0 4 C0 2.68 0 1.36 0 0 Z " fill="#C4DEBF" transform="translate(175,44)"/>
</svg>
